# MagicaVoxel @ Ephtracy

# group
o 

# material
mtllib Water.mtl
usemtl palette

# normals
vn -1 0 0
vn 1 0 0
vn 0 0 1
vn 0 0 -1
vn 0 -1 0
vn 0 1 0

# texcoords
vt 0.970703 0.5
vt 0.974609 0.5
vt 0.978516 0.5

# verts
v -1 -1 1
v -1 -1 -1
v -1 0.9 0.5
v -1 0.9 0.4
v -1 0.9 0.3
v -1 0.9 0
v -1 0.9 -0.2
v -1 0.9 -0.3
v -1 0.9 -0.4
v -1 0.9 -0.7
v -1 0.9 -0.8
v -1 1 1
v -1 1 0.5
v -1 1 0.4
v -1 1 0.3
v -1 1 0
v -1 1 -0.2
v -1 1 -0.3
v -1 1 -0.4
v -1 1 -0.7
v -1 1 -0.8
v -1 1 -1
v 1 -1 1
v 1 -1 -1
v 1 0.9 1
v 1 0.9 0.9
v 1 0.9 0.8
v 1 0.9 0.6
v 1 0.9 0.4
v 1 0.9 0.1
v 1 0.9 -0.1
v 1 0.9 -0.2
v 1 0.9 -0.4
v 1 0.9 -0.5
v 1 0.9 -0.8
v 1 0.9 -0.9
v 1 1 1
v 1 1 0.9
v 1 1 0.8
v 1 1 0.6
v 1 1 0.4
v 1 1 0.1
v 1 1 -0.1
v 1 1 -0.2
v 1 1 -0.4
v 1 1 -0.5
v 1 1 -0.8
v 1 1 -0.9
v 1 1 -1
v -1 -1 1
v -1 1 1
v -0.7 0.9 1
v -0.7 1 1
v -0.6 0.9 1
v -0.6 1 1
v -0.5 0.9 1
v -0.5 1 1
v -0.4 0.9 1
v -0.4 1 1
v -0.1 0.9 1
v -0.1 1 1
v 0.1 0.9 1
v 0.1 1 1
v 0.8 0.9 1
v 0.8 1 1
v 0.9 0.9 1
v 0.9 1 1
v 1 -1 1
v 1 0.9 1
v 1 1 1
v -1 -1 -1
v -1 1 -1
v -0.3 0.9 -1
v -0.3 1 -1
v -0.1 0.9 -1
v -0.1 1 -1
v 1 -1 -1
v 1 1 -1
v -1 -1 1
v 1 -1 1
v -1 -1 -1
v 1 -1 -1
v -1 1 1
v -0.7 1 1
v -0.6 1 1
v -0.5 1 1
v -0.4 1 1
v -0.1 1 1
v 0.1 1 1
v 0.8 1 1
v 0.9 1 1
v 1 1 1
v -0.9 1 0.9
v -0.7 1 0.9
v -0.6 1 0.9
v -0.5 1 0.9
v -0.4 1 0.9
v -0.2 1 0.9
v -0.1 1 0.9
v 0.1 1 0.9
v 0.2 1 0.9
v 0.5 1 0.9
v 0.8 1 0.9
v 0.9 1 0.9
v 1 1 0.9
v -0.8 1 0.8
v -0.7 1 0.8
v -0.5 1 0.8
v -0.4 1 0.8
v -0.3 1 0.8
v -0.2 1 0.8
v 0.2 1 0.8
v 0.5 1 0.8
v 0.8 1 0.8
v 1 1 0.8
v -0.9 1 0.7
v -0.8 1 0.7
v -0.5 1 0.7
v -0.3 1 0.7
v 0.1 1 0.7
v 0.2 1 0.7
v 0.3 1 0.7
v 0.4 1 0.7
v 0.5 1 0.7
v 0.6 1 0.7
v 0.8 1 0.7
v 0.9 1 0.7
v -0.9 1 0.6
v -0.7 1 0.6
v -0.3 1 0.6
v 0.1 1 0.6
v 0.2 1 0.6
v 0.3 1 0.6
v 0.4 1 0.6
v 0.6 1 0.6
v 0.9 1 0.6
v 1 1 0.6
v -1 1 0.5
v -0.9 1 0.5
v -0.7 1 0.5
v -0.4 1 0.5
v -0.1 1 0.5
v 0 1 0.5
v 0.2 1 0.5
v 0.6 1 0.5
v 0.8 1 0.5
v 0.9 1 0.5
v -1 1 0.4
v -0.9 1 0.4
v -0.7 1 0.4
v -0.4 1 0.4
v -0.1 1 0.4
v 0 1 0.4
v 0.2 1 0.4
v 0.5 1 0.4
v 0.6 1 0.4
v 0.8 1 0.4
v 0.9 1 0.4
v 1 1 0.4
v -1 1 0.3
v -0.9 1 0.3
v 0.5 1 0.3
v 0.8 1 0.3
v -0.7 1 0.2
v -0.5 1 0.2
v -0.1 1 0.2
v 0.1 1 0.2
v 0.2 1 0.2
v 0.3 1 0.2
v -0.7 1 0.1
v -0.6 1 0.1
v -0.5 1 0.1
v -0.3 1 0.1
v -0.1 1 0.1
v 0.1 1 0.1
v 0.2 1 0.1
v 0.3 1 0.1
v 0.5 1 0.1
v 0.9 1 0.1
v 1 1 0.1
v -1 1 0
v -0.9 1 0
v -0.6 1 0
v -0.5 1 0
v -0.4 1 0
v -0.3 1 0
v -0.1 1 0
v 0.3 1 0
v 0.4 1 0
v 0.5 1 0
v 0.7 1 0
v 0.8 1 0
v -0.4 1 -0.1
v -0.1 1 -0.1
v 0.3 1 -0.1
v 0.4 1 -0.1
v 0.6 1 -0.1
v 0.8 1 -0.1
v 1 1 -0.1
v -1 1 -0.2
v -0.9 1 -0.2
v -0.8 1 -0.2
v -0.7 1 -0.2
v -0.4 1 -0.2
v -0.3 1 -0.2
v -0.2 1 -0.2
v -0.1 1 -0.2
v 0.3 1 -0.2
v 0.4 1 -0.2
v 0.6 1 -0.2
v 0.7 1 -0.2
v 1 1 -0.2
v -1 1 -0.3
v -0.8 1 -0.3
v -0.7 1 -0.3
v -0.4 1 -0.3
v -0.3 1 -0.3
v -0.2 1 -0.3
v -0.1 1 -0.3
v 0.1 1 -0.3
v 0.3 1 -0.3
v 0.4 1 -0.3
v 0.8 1 -0.3
v 0.9 1 -0.3
v -1 1 -0.4
v -0.9 1 -0.4
v -0.8 1 -0.4
v -0.7 1 -0.4
v -0.5 1 -0.4
v -0.4 1 -0.4
v -0.1 1 -0.4
v 0.1 1 -0.4
v 0.3 1 -0.4
v 0.4 1 -0.4
v 0.5 1 -0.4
v 0.8 1 -0.4
v 0.9 1 -0.4
v 1 1 -0.4
v -0.8 1 -0.5
v -0.7 1 -0.5
v -0.6 1 -0.5
v -0.5 1 -0.5
v -0.4 1 -0.5
v -0.3 1 -0.5
v 0 1 -0.5
v 0.1 1 -0.5
v 0.3 1 -0.5
v 0.4 1 -0.5
v 0.5 1 -0.5
v 0.8 1 -0.5
v 0.9 1 -0.5
v 1 1 -0.5
v -0.9 1 -0.6
v -0.8 1 -0.6
v -0.6 1 -0.6
v -0.4 1 -0.6
v -0.3 1 -0.6
v -0.2 1 -0.6
v 0 1 -0.6
v 0.1 1 -0.6
v 0.4 1 -0.6
v 0.7 1 -0.6
v 0.9 1 -0.6
v -1 1 -0.7
v -0.9 1 -0.7
v -0.4 1 -0.7
v -0.2 1 -0.7
v 0 1 -0.7
v 0.2 1 -0.7
v 0.3 1 -0.7
v 0.4 1 -0.7
v 0.6 1 -0.7
v 0.7 1 -0.7
v 0.9 1 -0.7
v -1 1 -0.8
v -0.9 1 -0.8
v -0.8 1 -0.8
v -0.6 1 -0.8
v -0.4 1 -0.8
v -0.2 1 -0.8
v -0.1 1 -0.8
v 0 1 -0.8
v 0.2 1 -0.8
v 0.3 1 -0.8
v 0.4 1 -0.8
v 0.6 1 -0.8
v 0.7 1 -0.8
v 0.9 1 -0.8
v 1 1 -0.8
v -0.8 1 -0.9
v -0.6 1 -0.9
v -0.3 1 -0.9
v -0.1 1 -0.9
v 0 1 -0.9
v 0.4 1 -0.9
v 0.6 1 -0.9
v 0.9 1 -0.9
v 1 1 -0.9
v -1 1 -1
v -0.3 1 -1
v -0.1 1 -1
v 1 1 -1

# faces
f 3/1/1 2/1/1 1/1/1
f 4/1/1 2/1/1 3/1/1
f 5/1/1 2/1/1 4/1/1
f 6/1/1 2/1/1 5/1/1
f 7/1/1 2/1/1 6/1/1
f 8/1/1 2/1/1 7/1/1
f 9/1/1 2/1/1 8/1/1
f 10/1/1 2/1/1 9/1/1
f 11/1/1 2/1/1 10/1/1
f 12/1/1 3/1/1 1/1/1
f 13/2/1 4/2/1 3/2/1
f 13/1/1 3/1/1 12/1/1
f 14/3/1 5/3/1 4/3/1
f 14/2/1 4/2/1 13/2/1
f 15/1/1 6/1/1 5/1/1
f 15/3/1 5/3/1 14/3/1
f 16/3/1 7/3/1 6/3/1
f 16/1/1 6/1/1 15/1/1
f 17/1/1 8/1/1 7/1/1
f 17/3/1 7/3/1 16/3/1
f 18/2/1 9/2/1 8/2/1
f 18/1/1 8/1/1 17/1/1
f 19/1/1 10/1/1 9/1/1
f 19/2/1 9/2/1 18/2/1
f 20/3/1 11/3/1 10/3/1
f 20/1/1 10/1/1 19/1/1
f 21/1/1 2/1/1 11/1/1
f 21/3/1 11/3/1 20/3/1
f 22/1/1 2/1/1 21/1/1
f 23/1/2 24/1/2 25/1/2
f 25/1/2 24/1/2 26/1/2
f 26/1/2 24/1/2 27/1/2
f 27/1/2 24/1/2 28/1/2
f 28/1/2 24/1/2 29/1/2
f 29/1/2 24/1/2 30/1/2
f 30/1/2 24/1/2 31/1/2
f 31/1/2 24/1/2 32/1/2
f 32/1/2 24/1/2 33/1/2
f 33/1/2 24/1/2 34/1/2
f 34/1/2 24/1/2 35/1/2
f 35/1/2 24/1/2 36/1/2
f 25/3/2 26/3/2 37/3/2
f 26/1/2 27/1/2 38/1/2
f 37/3/2 26/3/2 38/3/2
f 27/2/2 28/2/2 39/2/2
f 38/1/2 27/1/2 39/1/2
f 28/1/2 29/1/2 40/1/2
f 39/2/2 28/2/2 40/2/2
f 29/3/2 30/3/2 41/3/2
f 40/1/2 29/1/2 41/1/2
f 30/1/2 31/1/2 42/1/2
f 41/3/2 30/3/2 42/3/2
f 31/2/2 32/2/2 43/2/2
f 42/1/2 31/1/2 43/1/2
f 32/1/2 33/1/2 44/1/2
f 43/2/2 32/2/2 44/2/2
f 33/3/2 34/3/2 45/3/2
f 44/1/2 33/1/2 45/1/2
f 34/1/2 35/1/2 46/1/2
f 45/3/2 34/3/2 46/3/2
f 35/3/2 36/3/2 47/3/2
f 46/1/2 35/1/2 47/1/2
f 36/1/2 24/1/2 48/1/2
f 47/3/2 36/3/2 48/3/2
f 48/1/2 24/1/2 49/1/2
f 52/1/3 51/1/3 50/1/3
f 53/1/3 51/1/3 52/1/3
f 54/1/3 52/1/3 50/1/3
f 54/2/3 53/2/3 52/2/3
f 55/2/3 53/2/3 54/2/3
f 56/1/3 54/1/3 50/1/3
f 56/1/3 55/1/3 54/1/3
f 57/1/3 55/1/3 56/1/3
f 58/1/3 56/1/3 50/1/3
f 58/3/3 57/3/3 56/3/3
f 59/3/3 57/3/3 58/3/3
f 60/1/3 58/1/3 50/1/3
f 60/1/3 59/1/3 58/1/3
f 61/1/3 59/1/3 60/1/3
f 62/1/3 60/1/3 50/1/3
f 62/3/3 61/3/3 60/3/3
f 63/3/3 61/3/3 62/3/3
f 64/1/3 62/1/3 50/1/3
f 64/1/3 63/1/3 62/1/3
f 65/1/3 63/1/3 64/1/3
f 66/1/3 64/1/3 50/1/3
f 66/2/3 65/2/3 64/2/3
f 67/2/3 65/2/3 66/2/3
f 68/1/3 66/1/3 50/1/3
f 69/3/3 67/3/3 66/3/3
f 69/1/3 66/1/3 68/1/3
f 70/3/3 67/3/3 69/3/3
f 71/1/4 72/1/4 73/1/4
f 73/1/4 72/1/4 74/1/4
f 71/1/4 73/1/4 75/1/4
f 73/2/4 74/2/4 75/2/4
f 75/2/4 74/2/4 76/2/4
f 71/1/4 75/1/4 77/1/4
f 75/1/4 76/1/4 77/1/4
f 77/1/4 76/1/4 78/1/4
f 81/1/5 80/1/5 79/1/5
f 82/1/5 80/1/5 81/1/5
f 83/1/6 84/1/6 93/1/6
f 84/2/6 85/2/6 94/2/6
f 93/1/6 84/1/6 94/1/6
f 85/1/6 86/1/6 95/1/6
f 94/2/6 85/2/6 95/2/6
f 86/3/6 87/3/6 96/3/6
f 95/1/6 86/1/6 96/1/6
f 87/1/6 88/1/6 97/1/6
f 96/3/6 87/3/6 97/3/6
f 97/1/6 88/1/6 98/1/6
f 88/3/6 89/3/6 99/3/6
f 98/1/6 88/1/6 99/1/6
f 89/1/6 90/1/6 100/1/6
f 99/3/6 89/3/6 100/3/6
f 100/1/6 90/1/6 101/1/6
f 101/1/6 90/1/6 102/1/6
f 90/2/6 91/2/6 103/2/6
f 102/1/6 90/1/6 103/1/6
f 91/3/6 92/3/6 104/3/6
f 103/2/6 91/2/6 104/2/6
f 104/3/6 92/3/6 105/3/6
f 93/3/6 94/3/6 106/3/6
f 94/1/6 95/1/6 107/1/6
f 106/3/6 94/3/6 107/3/6
f 95/1/6 96/1/6 107/1/6
f 96/1/6 97/1/6 107/1/6
f 107/1/6 97/1/6 108/1/6
f 97/2/6 98/2/6 109/2/6
f 108/1/6 97/1/6 109/1/6
f 109/2/6 98/2/6 110/2/6
f 98/1/6 99/1/6 111/1/6
f 110/2/6 98/2/6 111/2/6
f 99/1/6 100/1/6 111/1/6
f 100/1/6 101/1/6 111/1/6
f 101/3/6 102/3/6 112/3/6
f 111/1/6 101/1/6 112/1/6
f 102/1/6 103/1/6 113/1/6
f 112/3/6 102/3/6 113/3/6
f 104/1/6 105/1/6 113/1/6
f 103/1/6 104/1/6 113/1/6
f 113/1/6 105/1/6 114/1/6
f 114/1/6 105/1/6 115/1/6
f 83/1/6 93/1/6 116/1/6
f 93/3/6 106/3/6 116/3/6
f 106/1/6 107/1/6 117/1/6
f 116/3/6 106/3/6 117/3/6
f 107/1/6 108/1/6 117/1/6
f 109/2/6 110/2/6 118/2/6
f 117/1/6 108/1/6 118/1/6
f 108/2/6 109/2/6 118/2/6
f 111/1/6 112/1/6 119/1/6
f 118/2/6 110/2/6 119/2/6
f 110/1/6 111/1/6 119/1/6
f 119/1/6 112/1/6 120/1/6
f 112/2/6 113/2/6 121/2/6
f 120/1/6 112/1/6 121/1/6
f 121/2/6 113/2/6 122/2/6
f 122/2/6 113/2/6 123/2/6
f 113/1/6 114/1/6 124/1/6
f 123/2/6 113/2/6 124/2/6
f 124/1/6 114/1/6 125/1/6
f 114/2/6 115/2/6 126/2/6
f 125/1/6 114/1/6 126/1/6
f 126/2/6 115/2/6 127/2/6
f 117/1/6 118/1/6 128/1/6
f 83/1/6 116/1/6 128/1/6
f 116/1/6 117/1/6 128/1/6
f 118/1/6 119/1/6 128/1/6
f 128/1/6 119/1/6 129/1/6
f 119/2/6 120/2/6 130/2/6
f 129/1/6 119/1/6 130/1/6
f 120/1/6 121/1/6 131/1/6
f 130/2/6 120/2/6 131/2/6
f 121/3/6 122/3/6 132/3/6
f 131/1/6 121/1/6 132/1/6
f 122/1/6 123/1/6 133/1/6
f 132/3/6 122/3/6 133/3/6
f 124/2/6 125/2/6 134/2/6
f 133/1/6 123/1/6 134/1/6
f 123/2/6 124/2/6 134/2/6
f 126/1/6 127/1/6 135/1/6
f 134/2/6 125/2/6 135/2/6
f 125/1/6 126/1/6 135/1/6
f 127/2/6 115/2/6 136/2/6
f 135/1/6 127/1/6 136/1/6
f 136/2/6 115/2/6 137/2/6
f 83/1/6 128/1/6 138/1/6
f 128/2/6 129/2/6 139/2/6
f 138/1/6 128/1/6 139/1/6
f 134/1/6 135/1/6 140/1/6
f 139/2/6 129/2/6 140/2/6
f 132/1/6 133/1/6 140/1/6
f 133/1/6 134/1/6 140/1/6
f 131/1/6 132/1/6 140/1/6
f 129/1/6 130/1/6 140/1/6
f 130/1/6 131/1/6 140/1/6
f 140/1/6 135/1/6 141/1/6
f 141/1/6 135/1/6 142/1/6
f 142/1/6 135/1/6 143/1/6
f 143/1/6 135/1/6 144/1/6
f 135/2/6 136/2/6 145/2/6
f 144/1/6 135/1/6 145/1/6
f 145/2/6 136/2/6 146/2/6
f 136/1/6 137/1/6 147/1/6
f 146/2/6 136/2/6 147/2/6
f 138/2/6 139/2/6 148/2/6
f 139/2/6 140/2/6 148/2/6
f 148/2/6 140/2/6 149/2/6
f 140/3/6 141/3/6 150/3/6
f 149/2/6 140/2/6 150/2/6
f 141/1/6 142/1/6 151/1/6
f 150/3/6 141/3/6 151/3/6
f 142/2/6 143/2/6 152/2/6
f 151/1/6 142/1/6 152/1/6
f 143/3/6 144/3/6 153/3/6
f 152/2/6 143/2/6 153/2/6
f 144/1/6 145/1/6 154/1/6
f 153/3/6 144/3/6 154/3/6
f 154/1/6 145/1/6 155/1/6
f 145/3/6 146/3/6 156/3/6
f 155/1/6 145/1/6 156/1/6
f 146/1/6 147/1/6 157/1/6
f 156/3/6 146/3/6 157/3/6
f 147/1/6 137/1/6 158/1/6
f 157/1/6 147/1/6 158/1/6
f 158/1/6 137/1/6 159/1/6
f 148/3/6 149/3/6 160/3/6
f 154/1/6 155/1/6 161/1/6
f 160/3/6 149/3/6 161/3/6
f 151/1/6 152/1/6 161/1/6
f 149/1/6 150/1/6 161/1/6
f 150/1/6 151/1/6 161/1/6
f 153/1/6 154/1/6 161/1/6
f 152/1/6 153/1/6 161/1/6
f 156/2/6 157/2/6 162/2/6
f 161/1/6 155/1/6 162/1/6
f 155/2/6 156/2/6 162/2/6
f 157/1/6 158/1/6 163/1/6
f 162/2/6 157/2/6 163/2/6
f 160/1/6 161/1/6 164/1/6
f 161/1/6 162/1/6 164/1/6
f 162/1/6 163/1/6 164/1/6
f 164/1/6 163/1/6 165/1/6
f 165/1/6 163/1/6 166/1/6
f 166/1/6 163/1/6 167/1/6
f 167/1/6 163/1/6 168/1/6
f 168/1/6 163/1/6 169/1/6
f 160/1/6 164/1/6 170/1/6
f 164/2/6 165/2/6 170/2/6
f 170/2/6 165/2/6 171/2/6
f 165/1/6 166/1/6 172/1/6
f 171/2/6 165/2/6 172/2/6
f 172/1/6 166/1/6 173/1/6
f 166/3/6 167/3/6 174/3/6
f 173/1/6 166/1/6 174/1/6
f 167/1/6 168/1/6 175/1/6
f 174/3/6 167/3/6 175/3/6
f 168/2/6 169/2/6 176/2/6
f 175/1/6 168/1/6 176/1/6
f 169/1/6 163/1/6 177/1/6
f 176/2/6 169/2/6 177/2/6
f 177/1/6 163/1/6 178/1/6
f 163/1/6 158/1/6 179/1/6
f 178/1/6 163/1/6 179/1/6
f 158/3/6 159/3/6 179/3/6
f 179/3/6 159/3/6 180/3/6
f 170/1/6 171/1/6 181/1/6
f 160/1/6 170/1/6 181/1/6
f 181/1/6 171/1/6 182/1/6
f 171/2/6 172/2/6 183/2/6
f 182/1/6 171/1/6 183/1/6
f 172/3/6 173/3/6 184/3/6
f 183/2/6 172/2/6 184/2/6
f 184/3/6 173/3/6 185/3/6
f 176/1/6 177/1/6 186/1/6
f 185/3/6 173/3/6 186/3/6
f 175/1/6 176/1/6 186/1/6
f 174/1/6 175/1/6 186/1/6
f 173/1/6 174/1/6 186/1/6
f 186/1/6 177/1/6 187/1/6
f 177/2/6 178/2/6 188/2/6
f 187/1/6 177/1/6 188/1/6
f 188/2/6 178/2/6 189/2/6
f 178/1/6 179/1/6 190/1/6
f 189/2/6 178/2/6 190/2/6
f 179/1/6 180/1/6 190/1/6
f 190/1/6 180/1/6 191/1/6
f 191/1/6 180/1/6 192/1/6
f 186/2/6 187/2/6 193/2/6
f 184/1/6 185/1/6 193/1/6
f 183/1/6 184/1/6 193/1/6
f 182/1/6 183/1/6 193/1/6
f 185/2/6 186/2/6 193/2/6
f 187/1/6 188/1/6 194/1/6
f 193/2/6 187/2/6 194/2/6
f 188/3/6 189/3/6 195/3/6
f 194/1/6 188/1/6 195/1/6
f 190/1/6 191/1/6 196/1/6
f 195/3/6 189/3/6 196/3/6
f 189/1/6 190/1/6 196/1/6
f 196/1/6 191/1/6 197/1/6
f 192/1/6 180/1/6 198/1/6
f 191/2/6 192/2/6 198/2/6
f 198/1/6 180/1/6 199/1/6
f 181/3/6 182/3/6 200/3/6
f 194/1/6 195/1/6 201/1/6
f 200/3/6 182/3/6 201/3/6
f 193/1/6 194/1/6 201/1/6
f 182/1/6 193/1/6 201/1/6
f 195/1/6 196/1/6 201/1/6
f 201/1/6 196/1/6 202/1/6
f 202/1/6 196/1/6 203/1/6
f 203/1/6 196/1/6 204/1/6
f 204/1/6 196/1/6 205/1/6
f 205/1/6 196/1/6 206/1/6
f 206/1/6 196/1/6 207/1/6
f 207/1/6 196/1/6 208/1/6
f 196/3/6 197/3/6 209/3/6
f 208/1/6 196/1/6 209/1/6
f 197/1/6 191/1/6 210/1/6
f 209/3/6 197/3/6 210/3/6
f 198/2/6 199/2/6 211/2/6
f 210/1/6 191/1/6 211/1/6
f 191/2/6 198/2/6 211/2/6
f 211/2/6 199/2/6 212/2/6
f 200/1/6 201/1/6 213/1/6
f 201/1/6 202/1/6 213/1/6
f 202/3/6 203/3/6 214/3/6
f 213/1/6 202/1/6 214/1/6
f 203/1/6 204/1/6 215/1/6
f 214/3/6 203/3/6 215/3/6
f 204/3/6 205/3/6 216/3/6
f 215/1/6 204/1/6 216/1/6
f 205/2/6 206/2/6 217/2/6
f 216/3/6 205/3/6 217/3/6
f 206/3/6 207/3/6 218/3/6
f 217/2/6 206/2/6 218/2/6
f 207/1/6 208/1/6 219/1/6
f 218/3/6 207/3/6 219/3/6
f 219/1/6 208/1/6 220/1/6
f 208/3/6 209/3/6 221/3/6
f 220/1/6 208/1/6 221/1/6
f 209/1/6 210/1/6 222/1/6
f 221/3/6 209/3/6 222/3/6
f 211/1/6 212/1/6 222/1/6
f 210/1/6 211/1/6 222/1/6
f 222/1/6 212/1/6 223/1/6
f 223/1/6 212/1/6 224/1/6
f 213/2/6 214/2/6 225/2/6
f 225/2/6 214/2/6 226/2/6
f 214/1/6 215/1/6 227/1/6
f 226/2/6 214/2/6 227/2/6
f 215/2/6 216/2/6 228/2/6
f 227/1/6 215/1/6 228/1/6
f 228/2/6 216/2/6 229/2/6
f 217/1/6 218/1/6 230/1/6
f 229/2/6 216/2/6 230/2/6
f 216/1/6 217/1/6 230/1/6
f 218/1/6 219/1/6 230/1/6
f 219/2/6 220/2/6 231/2/6
f 230/1/6 219/1/6 231/1/6
f 220/1/6 221/1/6 232/1/6
f 231/2/6 220/2/6 232/2/6
f 221/1/6 222/1/6 232/1/6
f 222/1/6 223/1/6 232/1/6
f 232/1/6 223/1/6 233/1/6
f 233/1/6 223/1/6 234/1/6
f 234/1/6 223/1/6 235/1/6
f 223/3/6 224/3/6 236/3/6
f 235/1/6 223/1/6 236/1/6
f 224/1/6 212/1/6 237/1/6
f 236/3/6 224/3/6 237/3/6
f 237/1/6 212/1/6 238/1/6
f 227/2/6 228/2/6 239/2/6
f 226/3/6 227/3/6 239/3/6
f 228/1/6 229/1/6 240/1/6
f 239/2/6 228/2/6 240/2/6
f 240/1/6 229/1/6 241/1/6
f 229/3/6 230/3/6 242/3/6
f 241/1/6 229/1/6 242/1/6
f 230/1/6 231/1/6 243/1/6
f 242/3/6 230/3/6 243/3/6
f 231/1/6 232/1/6 243/1/6
f 232/1/6 233/1/6 243/1/6
f 243/1/6 233/1/6 244/1/6
f 244/1/6 233/1/6 245/1/6
f 245/1/6 233/1/6 246/1/6
f 233/3/6 234/3/6 247/3/6
f 246/1/6 233/1/6 247/1/6
f 234/1/6 235/1/6 248/1/6
f 247/3/6 234/3/6 248/3/6
f 235/2/6 236/2/6 249/2/6
f 248/1/6 235/1/6 249/1/6
f 236/1/6 237/1/6 250/1/6
f 249/2/6 236/2/6 250/2/6
f 237/3/6 238/3/6 251/3/6
f 250/1/6 237/1/6 251/1/6
f 251/3/6 238/3/6 252/3/6
f 226/3/6 239/3/6 253/3/6
f 225/1/6 226/1/6 253/1/6
f 240/1/6 241/1/6 254/1/6
f 253/3/6 239/3/6 254/3/6
f 239/1/6 240/1/6 254/1/6
f 241/2/6 242/2/6 255/2/6
f 254/1/6 241/1/6 255/1/6
f 242/2/6 243/2/6 255/2/6
f 243/1/6 244/1/6 256/1/6
f 255/2/6 243/2/6 256/2/6
f 244/2/6 245/2/6 257/2/6
f 256/1/6 244/1/6 257/1/6
f 257/2/6 245/2/6 258/2/6
f 245/1/6 246/1/6 259/1/6
f 258/2/6 245/2/6 259/2/6
f 247/2/6 248/2/6 260/2/6
f 259/1/6 246/1/6 260/1/6
f 246/2/6 247/2/6 260/2/6
f 251/1/6 252/1/6 261/1/6
f 260/2/6 248/2/6 261/2/6
f 249/1/6 250/1/6 261/1/6
f 250/1/6 251/1/6 261/1/6
f 248/1/6 249/1/6 261/1/6
f 261/1/6 252/1/6 262/1/6
f 262/1/6 252/1/6 263/1/6
f 225/1/6 253/1/6 264/1/6
f 253/1/6 254/1/6 264/1/6
f 254/1/6 255/1/6 264/1/6
f 256/1/6 257/1/6 264/1/6
f 255/1/6 256/1/6 264/1/6
f 257/1/6 258/1/6 264/1/6
f 264/1/6 258/1/6 265/1/6
f 265/1/6 258/1/6 266/1/6
f 258/3/6 259/3/6 267/3/6
f 266/1/6 258/1/6 267/1/6
f 259/1/6 260/1/6 268/1/6
f 267/3/6 259/3/6 268/3/6
f 261/1/6 262/1/6 268/1/6
f 260/1/6 261/1/6 268/1/6
f 268/1/6 262/1/6 269/1/6
f 269/1/6 262/1/6 270/1/6
f 270/1/6 262/1/6 271/1/6
f 271/1/6 262/1/6 272/1/6
f 262/2/6 263/2/6 273/2/6
f 272/1/6 262/1/6 273/1/6
f 263/1/6 252/1/6 274/1/6
f 273/2/6 263/2/6 274/2/6
f 264/3/6 265/3/6 275/3/6
f 265/1/6 266/1/6 276/1/6
f 275/3/6 265/3/6 276/3/6
f 276/1/6 266/1/6 277/1/6
f 277/1/6 266/1/6 278/1/6
f 266/3/6 267/3/6 279/3/6
f 278/1/6 266/1/6 279/1/6
f 267/1/6 268/1/6 280/1/6
f 279/3/6 267/3/6 280/3/6
f 268/1/6 269/1/6 280/1/6
f 280/1/6 269/1/6 281/1/6
f 281/1/6 269/1/6 282/1/6
f 269/2/6 270/2/6 283/2/6
f 282/1/6 269/1/6 283/1/6
f 270/3/6 271/3/6 284/3/6
f 283/2/6 270/2/6 284/2/6
f 271/1/6 272/1/6 285/1/6
f 284/3/6 271/3/6 285/3/6
f 272/2/6 273/2/6 286/2/6
f 285/1/6 272/1/6 286/1/6
f 273/1/6 274/1/6 287/1/6
f 286/2/6 273/2/6 287/2/6
f 274/1/6 252/1/6 288/1/6
f 287/1/6 274/1/6 288/1/6
f 288/1/6 252/1/6 289/1/6
f 277/2/6 278/2/6 290/2/6
f 276/1/6 277/1/6 290/1/6
f 275/1/6 276/1/6 290/1/6
f 278/1/6 279/1/6 291/1/6
f 290/2/6 278/2/6 291/2/6
f 279/1/6 280/1/6 291/1/6
f 280/1/6 281/1/6 291/1/6
f 291/1/6 281/1/6 292/1/6
f 281/2/6 282/2/6 293/2/6
f 292/1/6 281/1/6 293/1/6
f 284/1/6 285/1/6 294/1/6
f 293/2/6 282/2/6 294/2/6
f 283/1/6 284/1/6 294/1/6
f 282/1/6 283/1/6 294/1/6
f 285/2/6 286/2/6 295/2/6
f 294/1/6 285/1/6 295/1/6
f 286/1/6 287/1/6 296/1/6
f 295/2/6 286/2/6 296/2/6
f 287/1/6 288/1/6 296/1/6
f 288/3/6 289/3/6 297/3/6
f 296/1/6 288/1/6 297/1/6
f 297/3/6 289/3/6 298/3/6
f 290/1/6 291/1/6 299/1/6
f 275/1/6 290/1/6 299/1/6
f 291/1/6 292/1/6 299/1/6
f 292/2/6 293/2/6 300/2/6
f 299/1/6 292/1/6 300/1/6
f 294/1/6 295/1/6 301/1/6
f 300/2/6 293/2/6 301/2/6
f 297/1/6 298/1/6 301/1/6
f 293/1/6 294/1/6 301/1/6
f 296/1/6 297/1/6 301/1/6
f 295/1/6 296/1/6 301/1/6
f 301/1/6 298/1/6 302/1/6
