# MagicaVoxel @ Ephtracy

# group
o 

# material
mtllib anim_penguin_v2_skies_head.mtl
usemtl palette

# normals
vn -1 0 0
vn 1 0 0
vn 0 0 -1
vn 0 0 1
vn 0 -1 0
vn 0 1 0

# texcoords
vt 0.373047 0.5
vt 0.787109 0.5
vt 0.916016 0.5
vt 0.994141 0.5

# verts
v -0.2 -0.3 -0.2
v -0.2 -0.3 0.3
v -0.2 -0.2 0.3
v -0.2 -0.2 0.4
v -0.2 -0.1 0
v -0.2 -0.1 0.1
v -0.2 -0.1 0.2
v -0.2 0 0
v -0.2 0 0.1
v -0.2 0.1 0
v -0.2 0.1 0.2
v -0.2 0.2 -0.2
v -0.2 0.2 -0.1
v -0.2 0.2 0.3
v -0.2 0.2 0.4
v -0.2 0.3 -0.1
v -0.2 0.3 0.3
v -0.1 -0.3 0.3
v -0.1 -0.3 0.4
v -0.1 -0.2 -0.3
v -0.1 -0.2 -0.2
v -0.1 -0.2 0.3
v -0.1 -0.2 0.4
v -0.1 -0.1 -0.3
v -0.1 -0.1 -0.2
v -0.1 0.2 0.3
v -0.1 0.2 0.4
v -0.1 0.3 0.3
v -0.1 0.3 0.4
v 0 -0.2 -0.4
v 0 -0.2 -0.3
v 0 -0.1 -0.4
v 0 -0.1 -0.3
v 0 -0.1 -0.2
v 0 0 -0.3
v 0 0 -0.2
v 0.2 -0.2 -0.1
v 0.2 -0.2 0.3
v 0.2 -0.1 0
v 0.2 -0.1 0.1
v 0.2 -0.1 0.2
v 0.2 0 0
v 0.2 0 0.1
v 0.2 0.1 0
v 0.2 0.1 0.2
v 0.2 0.2 -0.1
v 0.2 0.2 0.3
v -0.1 -0.2 -0.1
v -0.1 -0.2 0.3
v -0.1 -0.1 0
v -0.1 -0.1 0.1
v -0.1 -0.1 0.2
v -0.1 0 0
v -0.1 0 0.1
v -0.1 0.1 0
v -0.1 0.1 0.2
v -0.1 0.2 -0.1
v -0.1 0.2 0.3
v 0.1 -0.2 -0.4
v 0.1 -0.2 -0.3
v 0.1 -0.1 -0.4
v 0.1 -0.1 -0.3
v 0.1 -0.1 -0.2
v 0.1 0 -0.3
v 0.1 0 -0.2
v 0.2 -0.3 0.3
v 0.2 -0.3 0.4
v 0.2 -0.2 -0.3
v 0.2 -0.2 -0.2
v 0.2 -0.2 0.3
v 0.2 -0.2 0.4
v 0.2 -0.1 -0.3
v 0.2 -0.1 -0.2
v 0.2 0.2 0.3
v 0.2 0.2 0.4
v 0.2 0.3 0.3
v 0.2 0.3 0.4
v 0.3 -0.3 -0.2
v 0.3 -0.3 0.3
v 0.3 -0.2 0.3
v 0.3 -0.2 0.4
v 0.3 -0.1 0
v 0.3 -0.1 0.1
v 0.3 -0.1 0.2
v 0.3 0 0
v 0.3 0 0.1
v 0.3 0.1 0
v 0.3 0.1 0.2
v 0.3 0.2 -0.2
v 0.3 0.2 -0.1
v 0.3 0.2 0.3
v 0.3 0.2 0.4
v 0.3 0.3 -0.1
v 0.3 0.3 0.3
v 0 -0.2 -0.4
v 0 -0.1 -0.4
v 0.1 -0.2 -0.4
v 0.1 -0.1 -0.4
v -0.1 -0.2 -0.3
v -0.1 -0.1 -0.3
v 0 -0.2 -0.3
v 0 -0.1 -0.3
v 0 0 -0.3
v 0.1 -0.2 -0.3
v 0.1 -0.1 -0.3
v 0.1 0 -0.3
v 0.2 -0.2 -0.3
v 0.2 -0.1 -0.3
v -0.2 -0.3 -0.2
v -0.2 0.2 -0.2
v -0.1 -0.2 -0.2
v -0.1 -0.1 -0.2
v 0 -0.1 -0.2
v 0 0 -0.2
v 0.1 -0.1 -0.2
v 0.1 0 -0.2
v 0.2 -0.2 -0.2
v 0.2 -0.1 -0.2
v 0.3 -0.3 -0.2
v 0.3 0.2 -0.2
v -0.2 0.2 -0.1
v -0.2 0.3 -0.1
v 0.3 0.2 -0.1
v 0.3 0.3 -0.1
v -0.1 -0.2 0.3
v -0.1 0.2 0.3
v 0.2 -0.2 0.3
v 0.2 0.2 0.3
v -0.1 -0.2 -0.1
v -0.1 0.2 -0.1
v 0.2 -0.2 -0.1
v 0.2 0.2 -0.1
v -0.2 -0.3 0.3
v -0.2 -0.2 0.3
v -0.2 0.2 0.3
v -0.2 0.3 0.3
v -0.1 -0.3 0.3
v -0.1 -0.2 0.3
v -0.1 0.2 0.3
v -0.1 0.3 0.3
v 0.2 -0.3 0.3
v 0.2 -0.2 0.3
v 0.2 0.2 0.3
v 0.2 0.3 0.3
v 0.3 -0.3 0.3
v 0.3 -0.2 0.3
v 0.3 0.2 0.3
v 0.3 0.3 0.3
v -0.2 -0.2 0.4
v -0.2 0.2 0.4
v -0.1 -0.3 0.4
v -0.1 -0.2 0.4
v -0.1 0.2 0.4
v -0.1 0.3 0.4
v 0.2 -0.3 0.4
v 0.2 -0.2 0.4
v 0.2 0.2 0.4
v 0.2 0.3 0.4
v 0.3 -0.2 0.4
v 0.3 0.2 0.4
v -0.2 -0.3 -0.2
v 0.3 -0.3 -0.2
v -0.2 -0.3 0.3
v -0.1 -0.3 0.3
v 0.2 -0.3 0.3
v 0.3 -0.3 0.3
v -0.1 -0.3 0.4
v 0.2 -0.3 0.4
v 0 -0.2 -0.4
v 0.1 -0.2 -0.4
v -0.1 -0.2 -0.3
v 0 -0.2 -0.3
v 0.1 -0.2 -0.3
v 0.2 -0.2 -0.3
v -0.1 -0.2 -0.2
v 0.2 -0.2 -0.2
v -0.2 -0.2 0.3
v -0.1 -0.2 0.3
v 0.2 -0.2 0.3
v 0.3 -0.2 0.3
v -0.2 -0.2 0.4
v -0.1 -0.2 0.4
v 0.2 -0.2 0.4
v 0.3 -0.2 0.4
v -0.1 0.2 -0.1
v 0.2 0.2 -0.1
v -0.1 0.2 0.3
v 0.2 0.2 0.3
v -0.1 -0.2 -0.1
v 0.2 -0.2 -0.1
v -0.1 -0.2 0.3
v 0.2 -0.2 0.3
v 0 -0.1 -0.4
v 0.1 -0.1 -0.4
v -0.1 -0.1 -0.3
v 0 -0.1 -0.3
v 0.1 -0.1 -0.3
v 0.2 -0.1 -0.3
v -0.1 -0.1 -0.2
v 0 -0.1 -0.2
v 0.1 -0.1 -0.2
v 0.2 -0.1 -0.2
v 0 0 -0.3
v 0.1 0 -0.3
v 0 0 -0.2
v 0.1 0 -0.2
v -0.2 0.2 -0.2
v 0.3 0.2 -0.2
v -0.2 0.2 -0.1
v 0.3 0.2 -0.1
v -0.2 0.2 0.3
v -0.1 0.2 0.3
v 0.2 0.2 0.3
v 0.3 0.2 0.3
v -0.2 0.2 0.4
v -0.1 0.2 0.4
v 0.2 0.2 0.4
v 0.3 0.2 0.4
v -0.2 0.3 -0.1
v 0.3 0.3 -0.1
v -0.2 0.3 0.3
v -0.1 0.3 0.3
v 0.2 0.3 0.3
v 0.3 0.3 0.3
v -0.1 0.3 0.4
v 0.2 0.3 0.4

# faces
f 1/2/1 2/2/1 3/2/1
f 1/2/1 3/2/1 5/2/1
f 3/2/1 4/2/1 5/2/1
f 5/2/1 4/2/1 6/2/1
f 6/2/1 4/2/1 7/2/1
f 1/2/1 5/2/1 8/2/1
f 5/4/1 6/4/1 8/4/1
f 6/3/1 7/3/1 9/3/1
f 8/4/1 6/4/1 9/4/1
f 1/2/1 8/2/1 10/2/1
f 8/3/1 9/3/1 10/3/1
f 7/2/1 4/2/1 11/2/1
f 10/3/1 9/3/1 11/3/1
f 9/3/1 7/3/1 11/3/1
f 1/2/1 10/2/1 12/2/1
f 10/2/1 11/2/1 12/2/1
f 12/2/1 11/2/1 13/2/1
f 11/2/1 4/2/1 14/2/1
f 13/2/1 11/2/1 14/2/1
f 14/2/1 4/2/1 15/2/1
f 13/2/1 14/2/1 16/2/1
f 16/2/1 14/2/1 17/2/1
f 18/2/1 19/2/1 22/2/1
f 22/2/1 19/2/1 23/2/1
f 20/1/1 21/1/1 24/1/1
f 24/1/1 21/1/1 25/1/1
f 26/2/1 27/2/1 28/2/1
f 28/2/1 27/2/1 29/2/1
f 30/1/1 31/1/1 32/1/1
f 32/1/1 31/1/1 33/1/1
f 33/1/1 34/1/1 35/1/1
f 35/1/1 34/1/1 36/1/1
f 37/2/1 38/2/1 39/2/1
f 39/2/1 38/2/1 40/2/1
f 40/2/1 38/2/1 41/2/1
f 37/2/1 39/2/1 42/2/1
f 39/4/1 40/4/1 42/4/1
f 40/3/1 41/3/1 43/3/1
f 42/4/1 40/4/1 43/4/1
f 37/2/1 42/2/1 44/2/1
f 42/3/1 43/3/1 44/3/1
f 41/2/1 38/2/1 45/2/1
f 44/3/1 43/3/1 45/3/1
f 43/3/1 41/3/1 45/3/1
f 37/2/1 44/2/1 46/2/1
f 44/2/1 45/2/1 46/2/1
f 45/2/1 38/2/1 47/2/1
f 46/2/1 45/2/1 47/2/1
f 50/2/2 49/2/2 48/2/2
f 51/2/2 49/2/2 50/2/2
f 52/2/2 49/2/2 51/2/2
f 53/2/2 50/2/2 48/2/2
f 53/4/2 51/4/2 50/4/2
f 54/3/2 52/3/2 51/3/2
f 54/4/2 51/4/2 53/4/2
f 55/2/2 53/2/2 48/2/2
f 55/3/2 54/3/2 53/3/2
f 56/2/2 49/2/2 52/2/2
f 56/3/2 54/3/2 55/3/2
f 56/3/2 52/3/2 54/3/2
f 57/2/2 55/2/2 48/2/2
f 57/2/2 56/2/2 55/2/2
f 58/2/2 49/2/2 56/2/2
f 58/2/2 56/2/2 57/2/2
f 61/1/2 60/1/2 59/1/2
f 62/1/2 60/1/2 61/1/2
f 64/1/2 63/1/2 62/1/2
f 65/1/2 63/1/2 64/1/2
f 70/2/2 67/2/2 66/2/2
f 71/2/2 67/2/2 70/2/2
f 72/1/2 69/1/2 68/1/2
f 73/1/2 69/1/2 72/1/2
f 76/2/2 75/2/2 74/2/2
f 77/2/2 75/2/2 76/2/2
f 80/2/2 79/2/2 78/2/2
f 82/2/2 80/2/2 78/2/2
f 82/2/2 81/2/2 80/2/2
f 83/2/2 81/2/2 82/2/2
f 84/2/2 81/2/2 83/2/2
f 85/2/2 82/2/2 78/2/2
f 85/4/2 83/4/2 82/4/2
f 86/3/2 84/3/2 83/3/2
f 86/4/2 83/4/2 85/4/2
f 87/2/2 85/2/2 78/2/2
f 87/3/2 86/3/2 85/3/2
f 88/2/2 81/2/2 84/2/2
f 88/3/2 86/3/2 87/3/2
f 88/3/2 84/3/2 86/3/2
f 89/2/2 87/2/2 78/2/2
f 89/2/2 88/2/2 87/2/2
f 90/2/2 88/2/2 89/2/2
f 91/2/2 81/2/2 88/2/2
f 91/2/2 88/2/2 90/2/2
f 92/2/2 81/2/2 91/2/2
f 93/2/2 91/2/2 90/2/2
f 94/2/2 91/2/2 93/2/2
f 95/1/3 96/1/3 97/1/3
f 97/1/3 96/1/3 98/1/3
f 99/1/3 100/1/3 101/1/3
f 101/1/3 100/1/3 102/1/3
f 102/1/3 103/1/3 105/1/3
f 105/1/3 103/1/3 106/1/3
f 104/1/3 105/1/3 107/1/3
f 107/1/3 105/1/3 108/1/3
f 109/2/3 110/2/3 111/2/3
f 111/2/3 110/2/3 112/2/3
f 112/2/3 110/2/3 113/2/3
f 113/2/3 110/2/3 114/2/3
f 114/2/3 110/2/3 116/2/3
f 109/2/3 111/2/3 117/2/3
f 115/2/3 116/2/3 118/2/3
f 109/2/3 117/2/3 119/2/3
f 117/2/3 118/2/3 119/2/3
f 118/2/3 116/2/3 120/2/3
f 119/2/3 118/2/3 120/2/3
f 116/2/3 110/2/3 120/2/3
f 121/2/3 122/2/3 123/2/3
f 123/2/3 122/2/3 124/2/3
f 125/2/3 126/2/3 127/2/3
f 127/2/3 126/2/3 128/2/3
f 131/2/4 130/2/4 129/2/4
f 132/2/4 130/2/4 131/2/4
f 137/2/4 134/2/4 133/2/4
f 138/2/4 134/2/4 137/2/4
f 139/2/4 136/2/4 135/2/4
f 140/2/4 136/2/4 139/2/4
f 145/2/4 142/2/4 141/2/4
f 146/2/4 142/2/4 145/2/4
f 147/2/4 144/2/4 143/2/4
f 148/2/4 144/2/4 147/2/4
f 152/2/4 150/2/4 149/2/4
f 153/2/4 150/2/4 152/2/4
f 155/2/4 152/2/4 151/2/4
f 155/2/4 154/2/4 153/2/4
f 155/2/4 153/2/4 152/2/4
f 156/2/4 154/2/4 155/2/4
f 157/2/4 154/2/4 156/2/4
f 158/2/4 154/2/4 157/2/4
f 159/2/4 157/2/4 156/2/4
f 160/2/4 157/2/4 159/2/4
f 161/2/5 162/2/5 163/2/5
f 163/2/5 162/2/5 164/2/5
f 164/2/5 162/2/5 165/2/5
f 165/2/5 162/2/5 166/2/5
f 164/2/5 165/2/5 167/2/5
f 167/2/5 165/2/5 168/2/5
f 169/1/5 170/1/5 172/1/5
f 172/1/5 170/1/5 173/1/5
f 171/1/5 172/1/5 175/1/5
f 173/1/5 174/1/5 175/1/5
f 172/1/5 173/1/5 175/1/5
f 175/1/5 174/1/5 176/1/5
f 177/2/5 178/2/5 181/2/5
f 181/2/5 178/2/5 182/2/5
f 179/2/5 180/2/5 183/2/5
f 183/2/5 180/2/5 184/2/5
f 185/2/5 186/2/5 187/2/5
f 187/2/5 186/2/5 188/2/5
f 191/2/6 190/2/6 189/2/6
f 192/2/6 190/2/6 191/2/6
f 196/1/6 194/1/6 193/1/6
f 197/1/6 194/1/6 196/1/6
f 199/1/6 196/1/6 195/1/6
f 200/1/6 196/1/6 199/1/6
f 201/1/6 198/1/6 197/1/6
f 202/1/6 198/1/6 201/1/6
f 205/1/6 204/1/6 203/1/6
f 206/1/6 204/1/6 205/1/6
f 209/2/6 208/2/6 207/2/6
f 210/2/6 208/2/6 209/2/6
f 215/2/6 212/2/6 211/2/6
f 216/2/6 212/2/6 215/2/6
f 217/2/6 214/2/6 213/2/6
f 218/2/6 214/2/6 217/2/6
f 221/2/6 220/2/6 219/2/6
f 222/2/6 220/2/6 221/2/6
f 223/2/6 220/2/6 222/2/6
f 224/2/6 220/2/6 223/2/6
f 225/2/6 223/2/6 222/2/6
f 226/2/6 223/2/6 225/2/6
