# MagicaVoxel @ Ephtracy

# group
o 

# material
mtllib anim_player_snowwomen_leg.mtl
usemtl palette

# normals
vn -1 0 0
vn 1 0 0
vn 0 0 -1
vn 0 0 1
vn 0 -1 0
vn 0 1 0

# texcoords
vt 0.275391 0.5
vt 0.900391 0.5

# verts
v -0.1 -0.2 -0.2
v -0.1 -0.2 0.2
v -0.1 -0.1 -0.2
v -0.1 -0.1 0
v -0.1 -0.1 0.2
v -0.1 0 0
v -0.1 0 0.2
v -0.1 0.2 0
v -0.1 0.2 0.2
v 0.1 -0.2 -0.2
v 0.1 -0.2 0.2
v 0.1 -0.1 -0.2
v 0.1 -0.1 0
v 0.1 -0.1 0.2
v 0.1 0 0
v 0.1 0 0.2
v 0.1 0.2 0
v 0.1 0.2 0.2
v -0.1 -0.2 -0.2
v -0.1 -0.1 -0.2
v 0.1 -0.2 -0.2
v 0.1 -0.1 -0.2
v -0.1 -0.1 0
v -0.1 0 0
v -0.1 0.2 0
v 0.1 -0.1 0
v 0.1 0 0
v 0.1 0.2 0
v -0.1 -0.2 0.2
v -0.1 -0.1 0.2
v -0.1 0 0.2
v -0.1 0.2 0.2
v 0.1 -0.2 0.2
v 0.1 -0.1 0.2
v 0.1 0 0.2
v 0.1 0.2 0.2
v -0.1 -0.2 -0.2
v 0.1 -0.2 -0.2
v -0.1 -0.2 0.2
v 0.1 -0.2 0.2
v -0.1 -0.1 -0.2
v 0.1 -0.1 -0.2
v -0.1 -0.1 0
v 0.1 -0.1 0
v -0.1 0.2 0
v 0.1 0.2 0
v -0.1 0.2 0.2
v 0.1 0.2 0.2

# faces
f 1/2/1 2/2/1 3/2/1
f 3/2/1 2/2/1 4/2/1
f 4/2/1 2/2/1 5/2/1
f 4/1/1 5/1/1 6/1/1
f 6/1/1 5/1/1 7/1/1
f 6/2/1 7/2/1 8/2/1
f 8/2/1 7/2/1 9/2/1
f 12/2/2 11/2/2 10/2/2
f 13/2/2 11/2/2 12/2/2
f 14/2/2 11/2/2 13/2/2
f 15/1/2 14/1/2 13/1/2
f 16/1/2 14/1/2 15/1/2
f 17/2/2 16/2/2 15/2/2
f 18/2/2 16/2/2 17/2/2
f 19/2/3 20/2/3 21/2/3
f 21/2/3 20/2/3 22/2/3
f 23/1/3 24/1/3 26/1/3
f 24/2/3 25/2/3 27/2/3
f 26/1/3 24/1/3 27/1/3
f 27/2/3 25/2/3 28/2/3
f 33/2/4 30/2/4 29/2/4
f 34/1/4 31/1/4 30/1/4
f 34/2/4 30/2/4 33/2/4
f 35/2/4 32/2/4 31/2/4
f 35/1/4 31/1/4 34/1/4
f 36/2/4 32/2/4 35/2/4
f 37/2/5 38/2/5 39/2/5
f 39/2/5 38/2/5 40/2/5
f 43/2/6 42/2/6 41/2/6
f 44/2/6 42/2/6 43/2/6
f 47/2/6 46/2/6 45/2/6
f 48/2/6 46/2/6 47/2/6
