# MagicaVoxel @ Ephtracy

# group
o 

# material
mtllib anim_player_snowman_penskin_body.mtl
usemtl palette

# normals
vn -1 0 0
vn 1 0 0
vn 0 0 -1
vn 0 0 1
vn 0 -1 0
vn 0 1 0

# texcoords
vt 0.736328 0.5
vt 0.958984 0.5
vt 0.986328 0.5

# verts
v -0.4 -0.5 -0.3
v -0.4 -0.5 0.1
v -0.4 -0.4 -0.4
v -0.4 -0.4 -0.3
v -0.4 -0.4 -0.1
v -0.4 -0.4 0.1
v -0.4 -0.4 0.3
v -0.4 -0.3 -0.2
v -0.4 -0.3 -0.1
v -0.4 -0.2 -0.4
v -0.4 -0.2 -0.2
v -0.4 -0.1 0.2
v -0.4 -0.1 0.3
v -0.4 0 -0.4
v -0.4 0 -0.3
v -0.4 0.5 -0.3
v -0.4 0.5 0.2
v -0.4 0.6 -0.3
v -0.4 0.6 0.2
v -0.3 -0.5 -0.4
v -0.3 -0.5 -0.3
v -0.3 -0.5 0.1
v -0.3 -0.5 0.2
v -0.3 -0.4 -0.4
v -0.3 -0.4 -0.3
v -0.3 -0.4 0.1
v -0.3 -0.4 0.2
v -0.3 -0.3 0.3
v -0.3 -0.3 0.4
v -0.3 -0.1 0.2
v -0.3 -0.1 0.3
v -0.3 -0.1 0.4
v -0.3 0 -0.4
v -0.3 0 -0.3
v -0.3 0.5 -0.4
v -0.3 0.5 -0.3
v -0.3 0.5 0.2
v -0.3 0.5 0.3
v -0.3 0.6 -0.4
v -0.3 0.6 -0.3
v -0.3 0.6 0.2
v -0.3 0.6 0.3
v -0.2 -0.5 0.2
v -0.2 -0.5 0.3
v -0.2 -0.4 0.2
v -0.2 -0.4 0.3
v -0.2 -0.3 0.4
v -0.2 -0.3 0.5
v -0.2 -0.1 0.3
v -0.2 -0.1 0.4
v -0.2 -0.1 0.5
v -0.2 0 0.3
v -0.2 0 0.4
v -0.1 -0.4 0.3
v -0.1 -0.4 0.4
v -0.1 -0.3 0.3
v -0.1 -0.3 0.4
v -0.1 0 0.3
v -0.1 0 0.4
v -0.1 0.1 0.3
v -0.1 0.1 0.4
v -0.1 0.4 -0.5
v -0.1 0.4 -0.4
v -0.1 0.5 -0.5
v -0.1 0.5 -0.4
v 0 0.3 -0.5
v 0 0.3 -0.4
v 0 0.4 -0.5
v 0 0.4 -0.4
v 0.1 0.1 -0.5
v 0.1 0.1 -0.4
v 0.1 0.3 -0.5
v 0.1 0.3 -0.4
v 0.3 -0.4 -0.3
v 0.3 -0.4 -0.1
v 0.3 -0.4 0.1
v 0.3 -0.3 -0.2
v 0.3 -0.3 -0.1
v 0.3 -0.2 -0.3
v 0.3 -0.2 -0.2
v 0.3 -0.1 -0.3
v 0.3 -0.1 -0.2
v 0.3 0.2 -0.2
v 0.3 0.2 -0.1
v 0.3 0.3 -0.1
v 0.3 0.3 0.1
v -0.3 -0.4 -0.3
v -0.3 -0.4 -0.1
v -0.3 -0.4 0.1
v -0.3 -0.3 -0.2
v -0.3 -0.3 -0.1
v -0.3 -0.2 -0.3
v -0.3 -0.2 -0.2
v -0.3 -0.1 -0.3
v -0.3 -0.1 -0.2
v -0.3 0.2 -0.2
v -0.3 0.2 -0.1
v -0.3 0.3 -0.1
v -0.3 0.3 0.1
v 0.1 -0.4 0.3
v 0.1 -0.4 0.4
v 0.1 -0.3 0.3
v 0.1 -0.3 0.4
v 0.1 0 0.3
v 0.1 0 0.4
v 0.1 0.1 0.3
v 0.1 0.1 0.4
v 0.1 0.4 -0.5
v 0.1 0.4 -0.4
v 0.1 0.5 -0.5
v 0.1 0.5 -0.4
v 0.2 -0.5 0.2
v 0.2 -0.5 0.3
v 0.2 -0.4 0.2
v 0.2 -0.4 0.3
v 0.2 -0.3 0.4
v 0.2 -0.3 0.5
v 0.2 -0.1 0.3
v 0.2 -0.1 0.4
v 0.2 -0.1 0.5
v 0.2 0 0.3
v 0.2 0 0.4
v 0.2 0.1 -0.5
v 0.2 0.1 -0.4
v 0.2 0.4 -0.5
v 0.2 0.4 -0.4
v 0.3 -0.5 -0.4
v 0.3 -0.5 -0.3
v 0.3 -0.5 0.1
v 0.3 -0.5 0.2
v 0.3 -0.4 -0.4
v 0.3 -0.4 -0.3
v 0.3 -0.4 0.1
v 0.3 -0.4 0.2
v 0.3 -0.4 0.3
v 0.3 -0.3 0.2
v 0.3 -0.3 0.3
v 0.3 -0.3 0.4
v 0.3 -0.1 0.2
v 0.3 -0.1 0.3
v 0.3 -0.1 0.4
v 0.3 0 -0.4
v 0.3 0 -0.3
v 0.3 0.5 -0.4
v 0.3 0.5 -0.3
v 0.3 0.5 0.2
v 0.3 0.5 0.3
v 0.3 0.6 -0.4
v 0.3 0.6 -0.3
v 0.3 0.6 0.2
v 0.3 0.6 0.3
v 0.4 -0.5 -0.3
v 0.4 -0.5 0.1
v 0.4 -0.4 -0.4
v 0.4 -0.4 -0.3
v 0.4 -0.4 -0.1
v 0.4 -0.4 0.1
v 0.4 -0.4 0.2
v 0.4 -0.3 -0.2
v 0.4 -0.3 -0.1
v 0.4 -0.3 0.2
v 0.4 -0.3 0.3
v 0.4 -0.2 -0.4
v 0.4 -0.2 -0.2
v 0.4 -0.1 0.2
v 0.4 -0.1 0.3
v 0.4 0 -0.4
v 0.4 0 -0.3
v 0.4 0.5 -0.3
v 0.4 0.5 0.2
v 0.4 0.6 -0.3
v 0.4 0.6 0.2
v -0.1 0.4 -0.5
v -0.1 0.5 -0.5
v 0 0.3 -0.5
v 0 0.4 -0.5
v 0.1 0.1 -0.5
v 0.1 0.3 -0.5
v 0.1 0.4 -0.5
v 0.1 0.5 -0.5
v 0.2 0.1 -0.5
v 0.2 0.4 -0.5
v -0.4 -0.4 -0.4
v -0.4 -0.2 -0.4
v -0.4 0 -0.4
v -0.3 -0.5 -0.4
v -0.3 -0.4 -0.4
v -0.3 -0.2 -0.4
v -0.3 -0.1 -0.4
v -0.3 0 -0.4
v -0.3 0.5 -0.4
v -0.3 0.6 -0.4
v -0.2 -0.1 -0.4
v -0.2 0.1 -0.4
v -0.1 0.1 -0.4
v -0.1 0.4 -0.4
v -0.1 0.5 -0.4
v 0 0.3 -0.4
v 0 0.4 -0.4
v 0.1 0.1 -0.4
v 0.1 0.3 -0.4
v 0.1 0.4 -0.4
v 0.1 0.5 -0.4
v 0.2 -0.1 -0.4
v 0.2 0.1 -0.4
v 0.2 0.4 -0.4
v 0.3 -0.5 -0.4
v 0.3 -0.4 -0.4
v 0.3 -0.2 -0.4
v 0.3 -0.1 -0.4
v 0.3 0 -0.4
v 0.3 0.5 -0.4
v 0.3 0.6 -0.4
v 0.4 -0.4 -0.4
v 0.4 -0.2 -0.4
v 0.4 0 -0.4
v -0.4 -0.5 -0.3
v -0.4 -0.4 -0.3
v -0.4 0 -0.3
v -0.4 0.5 -0.3
v -0.4 0.6 -0.3
v -0.3 -0.5 -0.3
v -0.3 -0.4 -0.3
v -0.3 0 -0.3
v -0.3 0.5 -0.3
v -0.3 0.6 -0.3
v 0.3 -0.5 -0.3
v 0.3 -0.4 -0.3
v 0.3 0 -0.3
v 0.3 0.5 -0.3
v 0.3 0.6 -0.3
v 0.4 -0.5 -0.3
v 0.4 -0.4 -0.3
v 0.4 0 -0.3
v 0.4 0.5 -0.3
v 0.4 0.6 -0.3
v -0.3 -0.4 0.1
v -0.3 0.3 0.1
v 0.3 -0.4 0.1
v 0.3 0.3 0.1
v -0.3 -0.4 -0.3
v -0.3 -0.2 -0.3
v -0.3 -0.1 -0.3
v -0.2 -0.1 -0.3
v 0.2 -0.1 -0.3
v 0.3 -0.4 -0.3
v 0.3 -0.2 -0.3
v 0.3 -0.1 -0.3
v -0.3 -0.1 -0.2
v -0.3 0.2 -0.2
v -0.2 -0.1 -0.2
v -0.2 0.2 -0.2
v 0 0.1 -0.2
v 0 0.2 -0.2
v 0.1 0 -0.2
v 0.1 0.1 -0.2
v 0.2 -0.1 -0.2
v 0.2 0 -0.2
v 0.3 -0.1 -0.2
v 0.3 0.2 -0.2
v -0.3 0.2 -0.1
v -0.3 0.3 -0.1
v 0.3 0.2 -0.1
v 0.3 0.3 -0.1
v -0.4 -0.5 0.1
v -0.4 -0.4 0.1
v -0.3 -0.5 0.1
v -0.3 -0.4 0.1
v 0.3 -0.5 0.1
v 0.3 -0.4 0.1
v 0.4 -0.5 0.1
v 0.4 -0.4 0.1
v -0.4 -0.1 0.2
v -0.4 0.5 0.2
v -0.4 0.6 0.2
v -0.3 -0.5 0.2
v -0.3 -0.4 0.2
v -0.3 -0.1 0.2
v -0.3 0.5 0.2
v -0.3 0.6 0.2
v -0.2 -0.5 0.2
v -0.2 -0.4 0.2
v 0.2 -0.5 0.2
v 0.2 -0.4 0.2
v 0.3 -0.5 0.2
v 0.3 -0.4 0.2
v 0.3 -0.3 0.2
v 0.3 -0.1 0.2
v 0.3 0.5 0.2
v 0.3 0.6 0.2
v 0.4 -0.4 0.2
v 0.4 -0.3 0.2
v 0.4 -0.1 0.2
v 0.4 0.5 0.2
v 0.4 0.6 0.2
v -0.4 -0.4 0.3
v -0.4 -0.1 0.3
v -0.3 -0.3 0.3
v -0.3 -0.1 0.3
v -0.3 0.5 0.3
v -0.3 0.6 0.3
v -0.2 -0.5 0.3
v -0.2 -0.4 0.3
v -0.2 -0.1 0.3
v -0.2 0 0.3
v -0.1 -0.4 0.3
v -0.1 -0.3 0.3
v -0.1 0 0.3
v -0.1 0.1 0.3
v 0.1 -0.4 0.3
v 0.1 -0.3 0.3
v 0.1 0 0.3
v 0.1 0.1 0.3
v 0.2 -0.5 0.3
v 0.2 -0.4 0.3
v 0.2 -0.1 0.3
v 0.2 0 0.3
v 0.3 -0.4 0.3
v 0.3 -0.3 0.3
v 0.3 -0.1 0.3
v 0.3 0.5 0.3
v 0.3 0.6 0.3
v 0.4 -0.3 0.3
v 0.4 -0.1 0.3
v -0.3 -0.3 0.4
v -0.3 -0.1 0.4
v -0.2 -0.3 0.4
v -0.2 -0.1 0.4
v -0.2 0 0.4
v -0.1 -0.4 0.4
v -0.1 -0.3 0.4
v -0.1 0 0.4
v -0.1 0.1 0.4
v 0.1 -0.4 0.4
v 0.1 -0.3 0.4
v 0.1 0 0.4
v 0.1 0.1 0.4
v 0.2 -0.3 0.4
v 0.2 -0.1 0.4
v 0.2 0 0.4
v 0.3 -0.3 0.4
v 0.3 -0.1 0.4
v -0.2 -0.3 0.5
v -0.2 -0.1 0.5
v 0.2 -0.3 0.5
v 0.2 -0.1 0.5
v -0.3 -0.5 -0.4
v 0.3 -0.5 -0.4
v -0.4 -0.5 -0.3
v -0.3 -0.5 -0.3
v 0.3 -0.5 -0.3
v 0.4 -0.5 -0.3
v -0.4 -0.5 0.1
v -0.3 -0.5 0.1
v -0.2 -0.5 0.1
v 0.2 -0.5 0.1
v 0.3 -0.5 0.1
v 0.4 -0.5 0.1
v -0.3 -0.5 0.2
v -0.2 -0.5 0.2
v 0.2 -0.5 0.2
v 0.3 -0.5 0.2
v -0.2 -0.5 0.3
v 0.2 -0.5 0.3
v -0.4 -0.4 -0.4
v -0.3 -0.4 -0.4
v 0.3 -0.4 -0.4
v 0.4 -0.4 -0.4
v -0.4 -0.4 -0.3
v -0.3 -0.4 -0.3
v 0.3 -0.4 -0.3
v 0.4 -0.4 -0.3
v -0.4 -0.4 0.1
v -0.3 -0.4 0.1
v 0.3 -0.4 0.1
v 0.4 -0.4 0.1
v -0.3 -0.4 0.2
v -0.2 -0.4 0.2
v 0.2 -0.4 0.2
v 0.3 -0.4 0.2
v 0.4 -0.4 0.2
v -0.4 -0.4 0.3
v -0.2 -0.4 0.3
v -0.1 -0.4 0.3
v 0.1 -0.4 0.3
v 0.2 -0.4 0.3
v 0.3 -0.4 0.3
v -0.1 -0.4 0.4
v 0.1 -0.4 0.4
v 0.3 -0.3 0.2
v 0.4 -0.3 0.2
v -0.3 -0.3 0.3
v -0.1 -0.3 0.3
v 0.1 -0.3 0.3
v 0.3 -0.3 0.3
v 0.4 -0.3 0.3
v -0.3 -0.3 0.4
v -0.2 -0.3 0.4
v -0.1 -0.3 0.4
v 0.1 -0.3 0.4
v 0.2 -0.3 0.4
v 0.3 -0.3 0.4
v -0.2 -0.3 0.5
v 0.2 -0.3 0.5
v -0.3 -0.1 -0.3
v -0.2 -0.1 -0.3
v 0.2 -0.1 -0.3
v 0.3 -0.1 -0.3
v -0.3 -0.1 -0.2
v -0.2 -0.1 -0.2
v 0.2 -0.1 -0.2
v 0.3 -0.1 -0.2
v 0.1 0.1 -0.5
v 0.2 0.1 -0.5
v 0.1 0.1 -0.4
v 0.2 0.1 -0.4
v -0.3 0.2 -0.2
v -0.2 0.2 -0.2
v 0 0.2 -0.2
v 0.3 0.2 -0.2
v -0.3 0.2 -0.1
v 0.3 0.2 -0.1
v 0 0.3 -0.5
v 0.1 0.3 -0.5
v 0 0.3 -0.4
v 0.1 0.3 -0.4
v -0.3 0.3 -0.1
v 0.3 0.3 -0.1
v -0.3 0.3 0.1
v 0.3 0.3 0.1
v -0.1 0.4 -0.5
v 0 0.4 -0.5
v -0.1 0.4 -0.4
v 0 0.4 -0.4
v -0.3 -0.4 -0.3
v 0.3 -0.4 -0.3
v -0.3 -0.4 -0.1
v 0.3 -0.4 -0.1
v -0.3 -0.4 0.1
v 0.3 -0.4 0.1
v -0.4 -0.1 0.2
v -0.3 -0.1 0.2
v 0.3 -0.1 0.2
v 0.4 -0.1 0.2
v -0.4 -0.1 0.3
v -0.3 -0.1 0.3
v -0.2 -0.1 0.3
v 0.2 -0.1 0.3
v 0.3 -0.1 0.3
v 0.4 -0.1 0.3
v -0.3 -0.1 0.4
v -0.2 -0.1 0.4
v 0.2 -0.1 0.4
v 0.3 -0.1 0.4
v -0.2 -0.1 0.5
v 0.2 -0.1 0.5
v -0.4 0 -0.4
v -0.3 0 -0.4
v 0.3 0 -0.4
v 0.4 0 -0.4
v -0.4 0 -0.3
v -0.3 0 -0.3
v 0.3 0 -0.3
v 0.4 0 -0.3
v -0.2 0 0.3
v -0.1 0 0.3
v 0.1 0 0.3
v 0.2 0 0.3
v -0.2 0 0.4
v -0.1 0 0.4
v 0.1 0 0.4
v 0.2 0 0.4
v -0.1 0.1 0.3
v 0.1 0.1 0.3
v -0.1 0.1 0.4
v 0.1 0.1 0.4
v 0.1 0.4 -0.5
v 0.2 0.4 -0.5
v 0.1 0.4 -0.4
v 0.2 0.4 -0.4
v -0.1 0.5 -0.5
v 0.1 0.5 -0.5
v -0.1 0.5 -0.4
v 0.1 0.5 -0.4
v -0.3 0.6 -0.4
v 0.3 0.6 -0.4
v -0.4 0.6 -0.3
v -0.3 0.6 -0.3
v 0.3 0.6 -0.3
v 0.4 0.6 -0.3
v -0.3 0.6 0.1
v 0.3 0.6 0.1
v -0.4 0.6 0.2
v -0.3 0.6 0.2
v 0.3 0.6 0.2
v 0.4 0.6 0.2
v -0.3 0.6 0.3
v 0.3 0.6 0.3

# faces
f 1/2/1 2/2/1 4/2/1
f 4/2/1 2/2/1 5/2/1
f 5/2/1 2/2/1 6/2/1
f 3/2/1 4/2/1 8/2/1
f 4/2/1 5/2/1 8/2/1
f 6/3/1 7/3/1 9/3/1
f 8/2/1 5/2/1 9/2/1
f 5/3/1 6/3/1 9/3/1
f 3/2/1 8/2/1 10/2/1
f 8/3/1 9/3/1 11/3/1
f 10/2/1 8/2/1 11/2/1
f 9/3/1 7/3/1 12/3/1
f 11/3/1 9/3/1 12/3/1
f 10/3/1 11/3/1 12/3/1
f 12/3/1 7/3/1 13/3/1
f 10/3/1 12/3/1 14/3/1
f 14/3/1 12/3/1 15/3/1
f 15/3/1 12/3/1 16/3/1
f 16/3/1 12/3/1 17/3/1
f 16/1/1 17/1/1 18/1/1
f 18/1/1 17/1/1 19/1/1
f 20/2/1 21/2/1 24/2/1
f 24/2/1 21/2/1 25/2/1
f 22/2/1 23/2/1 26/2/1
f 26/2/1 23/2/1 27/2/1
f 28/3/1 29/3/1 31/3/1
f 31/3/1 29/3/1 32/3/1
f 33/3/1 34/3/1 35/3/1
f 35/3/1 34/3/1 36/3/1
f 30/3/1 31/3/1 37/3/1
f 37/3/1 31/3/1 38/3/1
f 35/1/1 36/1/1 39/1/1
f 39/1/1 36/1/1 40/1/1
f 37/1/1 38/1/1 41/1/1
f 41/1/1 38/1/1 42/1/1
f 43/2/1 44/2/1 45/2/1
f 45/2/1 44/2/1 46/2/1
f 47/3/1 48/3/1 50/3/1
f 50/3/1 48/3/1 51/3/1
f 49/3/1 50/3/1 52/3/1
f 52/3/1 50/3/1 53/3/1
f 54/3/1 55/3/1 56/3/1
f 56/3/1 55/3/1 57/3/1
f 58/3/1 59/3/1 60/3/1
f 60/3/1 59/3/1 61/3/1
f 62/1/1 63/1/1 64/1/1
f 64/1/1 63/1/1 65/1/1
f 66/1/1 67/1/1 68/1/1
f 68/1/1 67/1/1 69/1/1
f 70/1/1 71/1/1 72/1/1
f 72/1/1 71/1/1 73/1/1
f 74/2/1 75/2/1 77/2/1
f 75/3/1 76/3/1 78/3/1
f 77/2/1 75/2/1 78/2/1
f 74/2/1 77/2/1 79/2/1
f 77/3/1 78/3/1 80/3/1
f 79/2/1 77/2/1 80/2/1
f 79/3/1 80/3/1 81/3/1
f 80/3/1 78/3/1 82/3/1
f 81/3/1 80/3/1 82/3/1
f 82/3/1 78/3/1 83/3/1
f 78/3/1 76/3/1 84/3/1
f 83/3/1 78/3/1 84/3/1
f 84/3/1 76/3/1 85/3/1
f 85/3/1 76/3/1 86/3/1
f 90/2/2 88/2/2 87/2/2
f 91/3/2 89/3/2 88/3/2
f 91/2/2 88/2/2 90/2/2
f 92/2/2 90/2/2 87/2/2
f 93/3/2 91/3/2 90/3/2
f 93/2/2 90/2/2 92/2/2
f 94/3/2 93/3/2 92/3/2
f 95/3/2 91/3/2 93/3/2
f 95/3/2 93/3/2 94/3/2
f 96/3/2 91/3/2 95/3/2
f 97/3/2 89/3/2 91/3/2
f 97/3/2 91/3/2 96/3/2
f 98/3/2 89/3/2 97/3/2
f 99/3/2 89/3/2 98/3/2
f 102/3/2 101/3/2 100/3/2
f 103/3/2 101/3/2 102/3/2
f 106/3/2 105/3/2 104/3/2
f 107/3/2 105/3/2 106/3/2
f 110/1/2 109/1/2 108/1/2
f 111/1/2 109/1/2 110/1/2
f 114/2/2 113/2/2 112/2/2
f 115/2/2 113/2/2 114/2/2
f 119/3/2 117/3/2 116/3/2
f 120/3/2 117/3/2 119/3/2
f 121/3/2 119/3/2 118/3/2
f 122/3/2 119/3/2 121/3/2
f 125/1/2 124/1/2 123/1/2
f 126/1/2 124/1/2 125/1/2
f 131/2/2 128/2/2 127/2/2
f 132/2/2 128/2/2 131/2/2
f 133/2/2 130/2/2 129/2/2
f 134/2/2 130/2/2 133/2/2
f 136/3/2 135/3/2 134/3/2
f 137/3/2 135/3/2 136/3/2
f 140/3/2 138/3/2 137/3/2
f 141/3/2 138/3/2 140/3/2
f 144/3/2 143/3/2 142/3/2
f 145/3/2 143/3/2 144/3/2
f 146/3/2 140/3/2 139/3/2
f 147/3/2 140/3/2 146/3/2
f 148/1/2 145/1/2 144/1/2
f 149/1/2 145/1/2 148/1/2
f 150/1/2 147/1/2 146/1/2
f 151/1/2 147/1/2 150/1/2
f 155/2/2 153/2/2 152/2/2
f 156/2/2 153/2/2 155/2/2
f 157/2/2 153/2/2 156/2/2
f 159/2/2 155/2/2 154/2/2
f 159/2/2 156/2/2 155/2/2
f 160/3/2 158/3/2 157/3/2
f 160/2/2 156/2/2 159/2/2
f 160/3/2 157/3/2 156/3/2
f 161/3/2 158/3/2 160/3/2
f 163/2/2 159/2/2 154/2/2
f 164/3/2 162/3/2 161/3/2
f 164/2/2 159/2/2 163/2/2
f 164/3/2 160/3/2 159/3/2
f 164/3/2 161/3/2 160/3/2
f 165/3/2 164/3/2 163/3/2
f 165/3/2 162/3/2 164/3/2
f 166/3/2 162/3/2 165/3/2
f 167/3/2 165/3/2 163/3/2
f 168/3/2 165/3/2 167/3/2
f 169/3/2 165/3/2 168/3/2
f 170/3/2 165/3/2 169/3/2
f 171/1/2 170/1/2 169/1/2
f 172/1/2 170/1/2 171/1/2
f 173/1/3 174/1/3 176/1/3
f 175/1/3 176/1/3 178/1/3
f 176/1/3 174/1/3 179/1/3
f 178/1/3 176/1/3 179/1/3
f 179/1/3 174/1/3 180/1/3
f 177/1/3 178/1/3 181/1/3
f 178/1/3 179/1/3 181/1/3
f 181/1/3 179/1/3 182/1/3
f 183/2/3 184/2/3 187/2/3
f 184/3/3 185/3/3 188/3/3
f 187/2/3 184/2/3 188/2/3
f 188/3/3 185/3/3 189/3/3
f 189/3/3 185/3/3 190/3/3
f 186/2/3 187/2/3 193/2/3
f 187/2/3 188/2/3 193/2/3
f 190/3/3 191/3/3 193/3/3
f 189/3/3 190/3/3 193/3/3
f 188/2/3 189/2/3 193/2/3
f 193/3/3 191/3/3 194/3/3
f 193/2/3 194/2/3 195/2/3
f 194/3/3 191/3/3 195/3/3
f 195/3/3 191/3/3 196/3/3
f 191/1/3 192/1/3 197/1/3
f 196/3/3 191/3/3 197/3/3
f 195/2/3 196/2/3 198/2/3
f 198/2/3 196/2/3 199/2/3
f 193/2/3 195/2/3 200/2/3
f 195/2/3 198/2/3 200/2/3
f 200/2/3 198/2/3 201/2/3
f 197/1/3 192/1/3 203/1/3
f 186/2/3 193/2/3 204/2/3
f 193/2/3 200/2/3 204/2/3
f 204/2/3 200/2/3 205/2/3
f 202/3/3 203/3/3 206/3/3
f 186/2/3 204/2/3 207/2/3
f 207/2/3 204/2/3 208/2/3
f 208/2/3 204/2/3 209/2/3
f 204/3/3 205/3/3 210/3/3
f 209/2/3 204/2/3 210/2/3
f 205/3/3 206/3/3 210/3/3
f 210/3/3 206/3/3 211/3/3
f 203/1/3 192/1/3 212/1/3
f 211/3/3 206/3/3 212/3/3
f 206/3/3 203/3/3 212/3/3
f 212/1/3 192/1/3 213/1/3
f 208/2/3 209/2/3 214/2/3
f 210/3/3 211/3/3 215/3/3
f 214/2/3 209/2/3 215/2/3
f 209/3/3 210/3/3 215/3/3
f 215/3/3 211/3/3 216/3/3
f 217/2/3 218/2/3 222/2/3
f 222/2/3 218/2/3 223/2/3
f 219/3/3 220/3/3 224/3/3
f 220/1/3 221/1/3 225/1/3
f 224/3/3 220/3/3 225/3/3
f 225/1/3 221/1/3 226/1/3
f 227/2/3 228/2/3 232/2/3
f 232/2/3 228/2/3 233/2/3
f 229/3/3 230/3/3 234/3/3
f 230/1/3 231/1/3 235/1/3
f 234/3/3 230/3/3 235/3/3
f 235/1/3 231/1/3 236/1/3
f 237/3/3 238/3/3 239/3/3
f 239/3/3 238/3/3 240/3/3
f 244/2/4 242/2/4 241/2/4
f 244/2/4 243/2/4 242/2/4
f 245/2/4 244/2/4 241/2/4
f 246/2/4 245/2/4 241/2/4
f 247/2/4 245/2/4 246/2/4
f 248/2/4 245/2/4 247/2/4
f 251/3/4 250/3/4 249/3/4
f 252/3/4 250/3/4 251/3/4
f 253/2/4 252/2/4 251/2/4
f 254/2/4 252/2/4 253/2/4
f 255/2/4 253/2/4 251/2/4
f 256/3/4 254/3/4 253/3/4
f 256/2/4 253/2/4 255/2/4
f 257/2/4 255/2/4 251/2/4
f 258/3/4 256/3/4 255/3/4
f 258/2/4 255/2/4 257/2/4
f 259/3/4 258/3/4 257/3/4
f 260/3/4 254/3/4 256/3/4
f 260/3/4 258/3/4 259/3/4
f 260/3/4 256/3/4 258/3/4
f 263/3/4 262/3/4 261/3/4
f 264/3/4 262/3/4 263/3/4
f 267/2/4 266/2/4 265/2/4
f 268/2/4 266/2/4 267/2/4
f 271/2/4 270/2/4 269/2/4
f 272/2/4 270/2/4 271/2/4
f 278/3/4 274/3/4 273/3/4
f 279/1/4 275/1/4 274/1/4
f 279/3/4 274/3/4 278/3/4
f 280/1/4 275/1/4 279/1/4
f 281/2/4 277/2/4 276/2/4
f 282/2/4 277/2/4 281/2/4
f 285/2/4 284/2/4 283/2/4
f 286/2/4 284/2/4 285/2/4
f 291/3/4 287/3/4 286/3/4
f 292/3/4 287/3/4 291/3/4
f 293/3/4 289/3/4 288/3/4
f 294/1/4 290/1/4 289/1/4
f 294/3/4 289/3/4 293/3/4
f 295/1/4 290/1/4 294/1/4
f 298/3/4 297/3/4 296/3/4
f 299/3/4 297/3/4 298/3/4
f 303/3/4 298/3/4 296/3/4
f 304/3/4 300/3/4 299/3/4
f 305/3/4 300/3/4 304/3/4
f 306/2/4 303/2/4 302/2/4
f 306/3/4 298/3/4 303/3/4
f 307/3/4 298/3/4 306/3/4
f 308/3/4 300/3/4 305/3/4
f 309/3/4 300/3/4 308/3/4
f 310/2/4 306/2/4 302/2/4
f 313/3/4 300/3/4 309/3/4
f 314/2/4 310/2/4 302/2/4
f 315/3/4 311/3/4 310/3/4
f 315/2/4 310/2/4 314/2/4
f 317/3/4 313/3/4 312/3/4
f 318/3/4 311/3/4 315/3/4
f 319/3/4 311/3/4 318/3/4
f 320/3/4 317/3/4 316/3/4
f 321/1/4 301/1/4 300/1/4
f 321/3/4 300/3/4 313/3/4
f 321/3/4 317/3/4 320/3/4
f 321/3/4 313/3/4 317/3/4
f 322/1/4 301/1/4 321/1/4
f 323/3/4 320/3/4 319/3/4
f 324/3/4 320/3/4 323/3/4
f 327/3/4 326/3/4 325/3/4
f 328/3/4 326/3/4 327/3/4
f 332/3/4 329/3/4 328/3/4
f 334/3/4 331/3/4 330/3/4
f 335/3/4 331/3/4 334/3/4
f 336/3/4 333/3/4 332/3/4
f 336/3/4 332/3/4 328/3/4
f 337/3/4 333/3/4 336/3/4
f 339/3/4 336/3/4 328/3/4
f 340/3/4 336/3/4 339/3/4
f 341/3/4 339/3/4 338/3/4
f 342/3/4 339/3/4 341/3/4
f 345/3/4 344/3/4 343/3/4
f 346/3/4 344/3/4 345/3/4
f 347/2/5 348/2/5 350/2/5
f 350/2/5 348/2/5 351/2/5
f 349/2/5 350/2/5 353/2/5
f 350/3/5 351/3/5 354/3/5
f 353/2/5 350/2/5 354/2/5
f 354/3/5 351/3/5 355/3/5
f 355/3/5 351/3/5 356/3/5
f 351/2/5 352/2/5 357/2/5
f 356/3/5 351/3/5 357/3/5
f 357/2/5 352/2/5 358/2/5
f 354/2/5 355/2/5 359/2/5
f 355/3/5 356/3/5 360/3/5
f 359/2/5 355/2/5 360/2/5
f 356/2/5 357/2/5 361/2/5
f 360/3/5 356/3/5 361/3/5
f 361/2/5 357/2/5 362/2/5
f 360/2/5 361/2/5 363/2/5
f 363/2/5 361/2/5 364/2/5
f 365/2/5 366/2/5 369/2/5
f 369/2/5 366/2/5 370/2/5
f 367/2/5 368/2/5 371/2/5
f 371/2/5 368/2/5 372/2/5
f 373/3/5 374/3/5 377/3/5
f 375/3/5 376/3/5 380/3/5
f 380/3/5 376/3/5 381/3/5
f 377/3/5 378/3/5 382/3/5
f 373/3/5 377/3/5 382/3/5
f 382/3/5 378/3/5 383/3/5
f 379/3/5 380/3/5 386/3/5
f 386/3/5 380/3/5 387/3/5
f 384/3/5 385/3/5 388/3/5
f 388/3/5 385/3/5 389/3/5
f 390/3/5 391/3/5 395/3/5
f 395/3/5 391/3/5 396/3/5
f 392/3/5 393/3/5 397/3/5
f 397/3/5 393/3/5 398/3/5
f 398/3/5 393/3/5 399/3/5
f 394/3/5 395/3/5 400/3/5
f 400/3/5 395/3/5 401/3/5
f 401/3/5 395/3/5 402/3/5
f 398/3/5 399/3/5 403/3/5
f 400/3/5 401/3/5 403/3/5
f 399/3/5 400/3/5 403/3/5
f 403/3/5 401/3/5 404/3/5
f 405/3/5 406/3/5 409/3/5
f 406/2/5 407/2/5 410/2/5
f 409/3/5 406/3/5 410/3/5
f 407/3/5 408/3/5 411/3/5
f 410/2/5 407/2/5 411/2/5
f 411/3/5 408/3/5 412/3/5
f 413/1/5 414/1/5 415/1/5
f 415/1/5 414/1/5 416/1/5
f 417/3/5 418/3/5 421/3/5
f 419/3/5 420/3/5 421/3/5
f 418/3/5 419/3/5 421/3/5
f 421/3/5 420/3/5 422/3/5
f 423/1/5 424/1/5 425/1/5
f 425/1/5 424/1/5 426/1/5
f 427/3/5 428/3/5 429/3/5
f 429/3/5 428/3/5 430/3/5
f 431/1/5 432/1/5 433/1/5
f 433/1/5 432/1/5 434/1/5
f 437/3/6 436/3/6 435/3/6
f 438/3/6 436/3/6 437/3/6
f 439/3/6 438/3/6 437/3/6
f 440/3/6 438/3/6 439/3/6
f 445/3/6 442/3/6 441/3/6
f 446/3/6 442/3/6 445/3/6
f 449/3/6 444/3/6 443/3/6
f 450/3/6 444/3/6 449/3/6
f 451/3/6 447/3/6 446/3/6
f 452/3/6 447/3/6 451/3/6
f 453/3/6 449/3/6 448/3/6
f 454/3/6 449/3/6 453/3/6
f 455/3/6 453/3/6 452/3/6
f 456/3/6 453/3/6 455/3/6
f 461/3/6 458/3/6 457/3/6
f 462/3/6 458/3/6 461/3/6
f 463/3/6 460/3/6 459/3/6
f 464/3/6 460/3/6 463/3/6
f 469/3/6 466/3/6 465/3/6
f 470/3/6 466/3/6 469/3/6
f 471/3/6 468/3/6 467/3/6
f 472/3/6 468/3/6 471/3/6
f 475/3/6 474/3/6 473/3/6
f 476/3/6 474/3/6 475/3/6
f 479/1/6 478/1/6 477/1/6
f 480/1/6 478/1/6 479/1/6
f 483/1/6 482/1/6 481/1/6
f 484/1/6 482/1/6 483/1/6
f 488/1/6 486/1/6 485/1/6
f 489/1/6 486/1/6 488/1/6
f 491/1/6 488/1/6 487/1/6
f 491/3/6 489/3/6 488/3/6
f 492/1/6 490/1/6 489/1/6
f 492/3/6 489/3/6 491/3/6
f 493/1/6 491/1/6 487/1/6
f 493/1/6 492/1/6 491/1/6
f 494/1/6 492/1/6 493/1/6
f 495/1/6 490/1/6 492/1/6
f 495/1/6 492/1/6 494/1/6
f 496/1/6 490/1/6 495/1/6
f 497/1/6 495/1/6 494/1/6
f 498/1/6 495/1/6 497/1/6
