# MagicaVoxel @ Ephtracy

# group
o 

# material
mtllib anim_player_snowman_penskin_head.mtl
usemtl palette

# normals
vn -1 0 0
vn 1 0 0
vn 0 0 -1
vn 0 0 1
vn 0 -1 0
vn 0 1 0

# texcoords
vt 0.373047 0.5
vt 0.412109 0.5
vt 0.958984 0.5
vt 0.986328 0.5
vt 0.994141 0.5

# verts
v -0.4 -0.3 -0.1
v -0.4 -0.3 0.2
v -0.4 -0.2 -0.2
v -0.4 -0.2 -0.1
v -0.4 -0.2 0.2
v -0.4 -0.2 0.3
v -0.4 -0.1 -0.1
v -0.4 -0.1 0
v -0.4 -0.1 0.1
v -0.4 0 -0.1
v -0.4 0 0
v -0.4 0.1 -0.1
v -0.4 0.1 0.1
v -0.4 0.1 0.2
v -0.4 0.1 0.3
v -0.4 0.2 -0.2
v -0.4 0.2 -0.1
v -0.4 0.2 0.1
v -0.4 0.2 0.2
v -0.4 0.3 -0.1
v -0.4 0.3 0.1
v -0.3 -0.3 -0.2
v -0.3 -0.3 -0.1
v -0.3 -0.3 0.2
v -0.3 -0.3 0.3
v -0.3 -0.2 -0.2
v -0.3 -0.2 -0.1
v -0.3 -0.2 0.2
v -0.3 -0.2 0.3
v -0.3 -0.1 0.3
v -0.3 -0.1 0.4
v -0.3 0 -0.3
v -0.3 0 -0.2
v -0.3 0 0.3
v -0.3 0 0.4
v -0.3 0.1 -0.3
v -0.3 0.1 -0.2
v -0.3 0.1 0.2
v -0.3 0.1 0.3
v -0.3 0.2 0.1
v -0.3 0.2 0.2
v -0.3 0.2 0.3
v -0.3 0.3 0.1
v -0.3 0.3 0.2
v -0.2 -0.2 0.3
v -0.2 -0.2 0.4
v -0.2 -0.1 0.3
v -0.2 -0.1 0.4
v -0.2 0 -0.4
v -0.2 0 -0.3
v -0.2 0 0.3
v -0.2 0 0.4
v -0.2 0.1 -0.4
v -0.2 0.1 -0.3
v -0.2 0.1 -0.2
v -0.2 0.1 0.3
v -0.2 0.1 0.4
v -0.2 0.2 -0.3
v -0.2 0.2 -0.2
v -0.2 0.2 -0.1
v -0.2 0.3 -0.2
v -0.2 0.3 -0.1
v -0.2 0.3 0
v -0.2 0.3 0.1
v -0.2 0.4 0
v -0.2 0.4 0.1
v -0.1 0 -0.5
v -0.1 0 -0.4
v -0.1 0.1 -0.5
v -0.1 0.1 -0.4
v -0.1 0.1 -0.3
v -0.1 0.1 0.3
v -0.1 0.1 0.4
v -0.1 0.2 -0.4
v -0.1 0.2 -0.3
v -0.1 0.2 -0.2
v -0.1 0.2 0.2
v -0.1 0.2 0.3
v -0.1 0.2 0.4
v -0.1 0.3 -0.3
v -0.1 0.3 -0.2
v -0.1 0.3 -0.1
v -0.1 0.3 0
v -0.1 0.3 0.1
v -0.1 0.3 0.2
v -0.1 0.3 0.3
v -0.1 0.4 -0.1
v -0.1 0.4 0
v -0.1 0.4 0.1
v -0.1 0.4 0.2
v 0.1 0 -0.4
v 0.1 0 -0.3
v 0.1 0.1 -0.4
v 0.1 0.1 -0.3
v 0.2 0 -0.3
v 0.2 0 -0.2
v 0.2 0.1 -0.3
v 0.2 0.1 -0.2
v 0.3 -0.2 -0.1
v 0.3 -0.2 0.2
v 0.3 -0.1 -0.1
v 0.3 -0.1 0
v 0.3 -0.1 0.1
v 0.3 0 -0.1
v 0.3 0 0
v 0.3 0.1 -0.1
v 0.3 0.1 0.1
v 0.3 0.2 -0.1
v 0.3 0.2 0.2
v -0.3 -0.2 -0.1
v -0.3 -0.2 0.2
v -0.3 -0.1 -0.1
v -0.3 -0.1 0
v -0.3 -0.1 0.1
v -0.3 0 -0.1
v -0.3 0 0
v -0.3 0.1 -0.1
v -0.3 0.1 0.1
v -0.3 0.2 -0.1
v -0.3 0.2 0.2
v -0.2 0 -0.3
v -0.2 0 -0.2
v -0.2 0.1 -0.3
v -0.2 0.1 -0.2
v -0.1 0 -0.4
v -0.1 0 -0.3
v -0.1 0.1 -0.4
v -0.1 0.1 -0.3
v 0.1 0 -0.5
v 0.1 0 -0.4
v 0.1 0.1 -0.5
v 0.1 0.1 -0.4
v 0.1 0.1 -0.3
v 0.1 0.1 0.3
v 0.1 0.1 0.4
v 0.1 0.2 -0.4
v 0.1 0.2 -0.3
v 0.1 0.2 -0.2
v 0.1 0.2 0.2
v 0.1 0.2 0.3
v 0.1 0.2 0.4
v 0.1 0.3 -0.3
v 0.1 0.3 -0.2
v 0.1 0.3 -0.1
v 0.1 0.3 0
v 0.1 0.3 0.1
v 0.1 0.3 0.2
v 0.1 0.3 0.3
v 0.1 0.4 -0.1
v 0.1 0.4 0
v 0.1 0.4 0.1
v 0.1 0.4 0.2
v 0.2 -0.2 0.3
v 0.2 -0.2 0.4
v 0.2 -0.1 0.3
v 0.2 -0.1 0.4
v 0.2 0 -0.4
v 0.2 0 -0.3
v 0.2 0 0.3
v 0.2 0 0.4
v 0.2 0.1 -0.4
v 0.2 0.1 -0.3
v 0.2 0.1 -0.2
v 0.2 0.1 0.3
v 0.2 0.1 0.4
v 0.2 0.2 -0.3
v 0.2 0.2 -0.2
v 0.2 0.2 -0.1
v 0.2 0.3 -0.2
v 0.2 0.3 -0.1
v 0.2 0.3 0
v 0.2 0.3 0.1
v 0.2 0.4 0
v 0.2 0.4 0.1
v 0.3 -0.3 -0.2
v 0.3 -0.3 -0.1
v 0.3 -0.3 0.2
v 0.3 -0.3 0.3
v 0.3 -0.2 -0.2
v 0.3 -0.2 -0.1
v 0.3 -0.2 0.2
v 0.3 -0.2 0.3
v 0.3 -0.1 0.3
v 0.3 -0.1 0.4
v 0.3 0 -0.3
v 0.3 0 -0.2
v 0.3 0 0.3
v 0.3 0 0.4
v 0.3 0.1 -0.3
v 0.3 0.1 -0.2
v 0.3 0.1 0.2
v 0.3 0.1 0.3
v 0.3 0.2 0.1
v 0.3 0.2 0.2
v 0.3 0.2 0.3
v 0.3 0.3 0.1
v 0.3 0.3 0.2
v 0.4 -0.3 -0.1
v 0.4 -0.3 0.2
v 0.4 -0.2 -0.2
v 0.4 -0.2 -0.1
v 0.4 -0.2 0.2
v 0.4 -0.2 0.3
v 0.4 -0.1 -0.1
v 0.4 -0.1 0
v 0.4 -0.1 0.1
v 0.4 0 -0.1
v 0.4 0 0
v 0.4 0.1 -0.1
v 0.4 0.1 0.1
v 0.4 0.1 0.2
v 0.4 0.1 0.3
v 0.4 0.2 -0.2
v 0.4 0.2 -0.1
v 0.4 0.2 0.1
v 0.4 0.2 0.2
v 0.4 0.3 -0.1
v 0.4 0.3 0.1
v -0.1 0 -0.5
v -0.1 0.1 -0.5
v 0.1 0 -0.5
v 0.1 0.1 -0.5
v -0.2 0 -0.4
v -0.2 0.1 -0.4
v -0.1 0 -0.4
v -0.1 0.1 -0.4
v -0.1 0.2 -0.4
v 0.1 0 -0.4
v 0.1 0.1 -0.4
v 0.1 0.2 -0.4
v 0.2 0 -0.4
v 0.2 0.1 -0.4
v -0.3 0 -0.3
v -0.3 0.1 -0.3
v -0.2 0 -0.3
v -0.2 0.1 -0.3
v -0.2 0.2 -0.3
v -0.1 0.1 -0.3
v -0.1 0.2 -0.3
v -0.1 0.3 -0.3
v 0.1 0.1 -0.3
v 0.1 0.2 -0.3
v 0.1 0.3 -0.3
v 0.2 0 -0.3
v 0.2 0.1 -0.3
v 0.2 0.2 -0.3
v 0.3 0 -0.3
v 0.3 0.1 -0.3
v -0.4 -0.2 -0.2
v -0.4 0.2 -0.2
v -0.3 -0.3 -0.2
v -0.3 -0.2 -0.2
v -0.3 -0.1 -0.2
v -0.3 0 -0.2
v -0.3 0.1 -0.2
v -0.2 -0.3 -0.2
v -0.2 -0.2 -0.2
v -0.2 0 -0.2
v -0.2 0.1 -0.2
v -0.2 0.2 -0.2
v -0.2 0.3 -0.2
v -0.1 -0.1 -0.2
v -0.1 0 -0.2
v -0.1 0.2 -0.2
v -0.1 0.3 -0.2
v 0.1 -0.1 -0.2
v 0.1 0 -0.2
v 0.1 0.2 -0.2
v 0.1 0.3 -0.2
v 0.2 -0.3 -0.2
v 0.2 -0.2 -0.2
v 0.2 0 -0.2
v 0.2 0.1 -0.2
v 0.2 0.2 -0.2
v 0.2 0.3 -0.2
v 0.3 -0.3 -0.2
v 0.3 -0.2 -0.2
v 0.3 -0.1 -0.2
v 0.3 0 -0.2
v 0.3 0.1 -0.2
v 0.4 -0.2 -0.2
v 0.4 0.2 -0.2
v -0.4 -0.3 -0.1
v -0.4 -0.2 -0.1
v -0.4 0.2 -0.1
v -0.4 0.3 -0.1
v -0.3 -0.3 -0.1
v -0.3 -0.2 -0.1
v -0.2 0.2 -0.1
v -0.2 0.3 -0.1
v -0.1 0.3 -0.1
v -0.1 0.4 -0.1
v 0.1 0.3 -0.1
v 0.1 0.4 -0.1
v 0.2 0.2 -0.1
v 0.2 0.3 -0.1
v 0.3 -0.3 -0.1
v 0.3 -0.2 -0.1
v 0.4 -0.3 -0.1
v 0.4 -0.2 -0.1
v 0.4 0.2 -0.1
v 0.4 0.3 -0.1
v -0.2 0.3 0
v -0.2 0.4 0
v -0.1 0.3 0
v -0.1 0.4 0
v 0.1 0.3 0
v 0.1 0.4 0
v 0.2 0.3 0
v 0.2 0.4 0
v -0.3 -0.2 0.2
v -0.3 0.2 0.2
v 0.3 -0.2 0.2
v 0.3 0.2 0.2
v -0.1 0 -0.4
v -0.1 0.1 -0.4
v 0.1 0 -0.4
v 0.1 0.1 -0.4
v -0.2 0 -0.3
v -0.2 0.1 -0.3
v -0.1 0 -0.3
v -0.1 0.1 -0.3
v 0.1 0 -0.3
v 0.1 0.1 -0.3
v 0.2 0 -0.3
v 0.2 0.1 -0.3
v -0.3 -0.2 -0.1
v -0.3 -0.1 -0.1
v -0.3 0 -0.1
v -0.3 0.1 -0.1
v -0.3 0.2 -0.1
v -0.1 -0.1 -0.1
v -0.1 0 -0.1
v 0.1 -0.1 -0.1
v 0.1 0 -0.1
v 0.3 -0.2 -0.1
v 0.3 -0.1 -0.1
v 0.3 0 -0.1
v 0.3 0.1 -0.1
v 0.3 0.2 -0.1
v -0.4 0.2 0.1
v -0.4 0.3 0.1
v -0.3 0.2 0.1
v -0.3 0.3 0.1
v -0.2 0.3 0.1
v -0.2 0.4 0.1
v -0.1 0.3 0.1
v -0.1 0.4 0.1
v 0.1 0.3 0.1
v 0.1 0.4 0.1
v 0.2 0.3 0.1
v 0.2 0.4 0.1
v 0.3 0.2 0.1
v 0.3 0.3 0.1
v 0.4 0.2 0.1
v 0.4 0.3 0.1
v -0.4 -0.3 0.2
v -0.4 -0.2 0.2
v -0.4 0.1 0.2
v -0.4 0.2 0.2
v -0.3 -0.3 0.2
v -0.3 -0.2 0.2
v -0.3 0.1 0.2
v -0.3 0.2 0.2
v -0.3 0.3 0.2
v -0.1 0.2 0.2
v -0.1 0.3 0.2
v -0.1 0.4 0.2
v 0.1 0.2 0.2
v 0.1 0.3 0.2
v 0.1 0.4 0.2
v 0.3 -0.3 0.2
v 0.3 -0.2 0.2
v 0.3 0.1 0.2
v 0.3 0.2 0.2
v 0.3 0.3 0.2
v 0.4 -0.3 0.2
v 0.4 -0.2 0.2
v 0.4 0.1 0.2
v 0.4 0.2 0.2
v -0.4 -0.2 0.3
v -0.4 0.1 0.3
v -0.3 -0.3 0.3
v -0.3 -0.2 0.3
v -0.3 -0.1 0.3
v -0.3 0 0.3
v -0.3 0.1 0.3
v -0.3 0.2 0.3
v -0.2 -0.2 0.3
v -0.2 -0.1 0.3
v -0.2 0 0.3
v -0.2 0.1 0.3
v -0.1 0.1 0.3
v -0.1 0.2 0.3
v -0.1 0.3 0.3
v 0.1 0.1 0.3
v 0.1 0.2 0.3
v 0.1 0.3 0.3
v 0.2 -0.2 0.3
v 0.2 -0.1 0.3
v 0.2 0 0.3
v 0.2 0.1 0.3
v 0.3 -0.3 0.3
v 0.3 -0.2 0.3
v 0.3 -0.1 0.3
v 0.3 0 0.3
v 0.3 0.1 0.3
v 0.3 0.2 0.3
v 0.4 -0.2 0.3
v 0.4 0.1 0.3
v -0.3 -0.1 0.4
v -0.3 0 0.4
v -0.2 -0.2 0.4
v -0.2 -0.1 0.4
v -0.2 0 0.4
v -0.2 0.1 0.4
v -0.1 0.1 0.4
v -0.1 0.2 0.4
v 0.1 0.1 0.4
v 0.1 0.2 0.4
v 0.2 -0.2 0.4
v 0.2 -0.1 0.4
v 0.2 0 0.4
v 0.2 0.1 0.4
v 0.3 -0.1 0.4
v 0.3 0 0.4
v -0.3 -0.3 -0.2
v -0.2 -0.3 -0.2
v 0.2 -0.3 -0.2
v 0.3 -0.3 -0.2
v -0.4 -0.3 -0.1
v -0.3 -0.3 -0.1
v -0.2 -0.3 -0.1
v 0.2 -0.3 -0.1
v 0.3 -0.3 -0.1
v 0.4 -0.3 -0.1
v -0.4 -0.3 0.2
v -0.3 -0.3 0.2
v 0.3 -0.3 0.2
v 0.4 -0.3 0.2
v -0.3 -0.3 0.3
v 0.3 -0.3 0.3
v -0.4 -0.2 -0.2
v -0.3 -0.2 -0.2
v 0.3 -0.2 -0.2
v 0.4 -0.2 -0.2
v -0.4 -0.2 -0.1
v -0.3 -0.2 -0.1
v 0.3 -0.2 -0.1
v 0.4 -0.2 -0.1
v -0.4 -0.2 0.2
v -0.3 -0.2 0.2
v 0.3 -0.2 0.2
v 0.4 -0.2 0.2
v -0.4 -0.2 0.3
v -0.3 -0.2 0.3
v -0.2 -0.2 0.3
v 0.2 -0.2 0.3
v 0.3 -0.2 0.3
v 0.4 -0.2 0.3
v -0.2 -0.2 0.4
v 0.2 -0.2 0.4
v -0.3 -0.1 0.3
v -0.2 -0.1 0.3
v 0.2 -0.1 0.3
v 0.3 -0.1 0.3
v -0.3 -0.1 0.4
v -0.2 -0.1 0.4
v 0.2 -0.1 0.4
v 0.3 -0.1 0.4
v -0.1 0 -0.5
v 0.1 0 -0.5
v -0.2 0 -0.4
v -0.1 0 -0.4
v 0.1 0 -0.4
v 0.2 0 -0.4
v -0.3 0 -0.3
v -0.2 0 -0.3
v -0.1 0 -0.3
v 0.1 0 -0.3
v 0.2 0 -0.3
v 0.3 0 -0.3
v -0.3 0 -0.2
v -0.2 0 -0.2
v 0.2 0 -0.2
v 0.3 0 -0.2
v -0.1 0.1 -0.4
v 0.1 0.1 -0.4
v -0.2 0.1 -0.3
v -0.1 0.1 -0.3
v 0.1 0.1 -0.3
v 0.2 0.1 -0.3
v -0.2 0.1 -0.2
v 0.2 0.1 -0.2
v -0.3 0.2 -0.1
v 0.3 0.2 -0.1
v -0.3 0.2 0.2
v 0.3 0.2 0.2
v -0.3 -0.2 -0.1
v 0.3 -0.2 -0.1
v -0.3 -0.2 0.2
v 0.3 -0.2 0.2
v -0.3 0 0.3
v -0.2 0 0.3
v 0.2 0 0.3
v 0.3 0 0.3
v -0.3 0 0.4
v -0.2 0 0.4
v 0.2 0 0.4
v 0.3 0 0.4
v -0.1 0.1 -0.5
v 0.1 0.1 -0.5
v -0.2 0.1 -0.4
v -0.1 0.1 -0.4
v 0.1 0.1 -0.4
v 0.2 0.1 -0.4
v -0.3 0.1 -0.3
v -0.2 0.1 -0.3
v -0.1 0.1 -0.3
v 0.1 0.1 -0.3
v 0.2 0.1 -0.3
v 0.3 0.1 -0.3
v -0.3 0.1 -0.2
v -0.2 0.1 -0.2
v 0.2 0.1 -0.2
v 0.3 0.1 -0.2
v -0.4 0.1 0.2
v -0.3 0.1 0.2
v 0.3 0.1 0.2
v 0.4 0.1 0.2
v -0.4 0.1 0.3
v -0.3 0.1 0.3
v -0.2 0.1 0.3
v -0.1 0.1 0.3
v 0.1 0.1 0.3
v 0.2 0.1 0.3
v 0.3 0.1 0.3
v 0.4 0.1 0.3
v -0.2 0.1 0.4
v -0.1 0.1 0.4
v 0.1 0.1 0.4
v 0.2 0.1 0.4
v -0.1 0.2 -0.4
v 0.1 0.2 -0.4
v -0.2 0.2 -0.3
v -0.1 0.2 -0.3
v 0.1 0.2 -0.3
v 0.2 0.2 -0.3
v -0.4 0.2 -0.2
v -0.2 0.2 -0.2
v -0.1 0.2 -0.2
v 0.1 0.2 -0.2
v 0.2 0.2 -0.2
v 0.4 0.2 -0.2
v -0.4 0.2 -0.1
v -0.2 0.2 -0.1
v 0.2 0.2 -0.1
v 0.4 0.2 -0.1
v -0.4 0.2 0.1
v -0.3 0.2 0.1
v 0.3 0.2 0.1
v 0.4 0.2 0.1
v -0.4 0.2 0.2
v -0.3 0.2 0.2
v -0.1 0.2 0.2
v 0.1 0.2 0.2
v 0.3 0.2 0.2
v 0.4 0.2 0.2
v -0.3 0.2 0.3
v -0.1 0.2 0.3
v 0.1 0.2 0.3
v 0.3 0.2 0.3
v -0.1 0.2 0.4
v 0.1 0.2 0.4
v -0.1 0.3 -0.3
v 0.1 0.3 -0.3
v -0.2 0.3 -0.2
v -0.1 0.3 -0.2
v 0.1 0.3 -0.2
v 0.2 0.3 -0.2
v -0.4 0.3 -0.1
v -0.2 0.3 -0.1
v -0.1 0.3 -0.1
v 0.1 0.3 -0.1
v 0.2 0.3 -0.1
v 0.4 0.3 -0.1
v -0.2 0.3 0
v -0.1 0.3 0
v 0.1 0.3 0
v 0.2 0.3 0
v -0.4 0.3 0.1
v -0.3 0.3 0.1
v -0.2 0.3 0.1
v -0.1 0.3 0.1
v 0.1 0.3 0.1
v 0.2 0.3 0.1
v 0.3 0.3 0.1
v 0.4 0.3 0.1
v -0.3 0.3 0.2
v -0.1 0.3 0.2
v 0.1 0.3 0.2
v 0.3 0.3 0.2
v -0.1 0.3 0.3
v 0.1 0.3 0.3
v -0.1 0.4 -0.1
v 0.1 0.4 -0.1
v -0.2 0.4 0
v -0.1 0.4 0
v 0.1 0.4 0
v 0.2 0.4 0
v -0.2 0.4 0.1
v -0.1 0.4 0.1
v 0.1 0.4 0.1
v 0.2 0.4 0.1
v -0.1 0.4 0.2
v 0.1 0.4 0.2

# faces
f 1/4/1 2/4/1 4/4/1
f 4/4/1 2/4/1 5/4/1
f 3/4/1 4/4/1 7/4/1
f 5/4/1 6/4/1 7/4/1
f 4/4/1 5/4/1 7/4/1
f 7/4/1 6/4/1 8/4/1
f 8/4/1 6/4/1 9/4/1
f 3/4/1 7/4/1 10/4/1
f 7/5/1 8/5/1 10/5/1
f 8/3/1 9/3/1 11/3/1
f 10/5/1 8/5/1 11/5/1
f 3/4/1 10/4/1 12/4/1
f 10/3/1 11/3/1 12/3/1
f 9/4/1 6/4/1 13/4/1
f 12/3/1 11/3/1 13/3/1
f 11/3/1 9/3/1 13/3/1
f 13/4/1 6/4/1 14/4/1
f 14/4/1 6/4/1 15/4/1
f 3/4/1 12/4/1 16/4/1
f 12/4/1 13/4/1 16/4/1
f 13/4/1 14/4/1 16/4/1
f 16/4/1 14/4/1 17/4/1
f 17/4/1 14/4/1 18/4/1
f 18/4/1 14/4/1 19/4/1
f 17/4/1 18/4/1 20/4/1
f 20/4/1 18/4/1 21/4/1
f 22/4/1 23/4/1 26/4/1
f 26/4/1 23/4/1 27/4/1
f 24/4/1 25/4/1 28/4/1
f 28/4/1 25/4/1 29/4/1
f 30/4/1 31/4/1 34/4/1
f 34/4/1 31/4/1 35/4/1
f 32/1/1 33/1/1 36/1/1
f 36/1/1 33/1/1 37/1/1
f 38/4/1 39/4/1 41/4/1
f 41/4/1 39/4/1 42/4/1
f 40/4/1 41/4/1 43/4/1
f 43/4/1 41/4/1 44/4/1
f 45/4/1 46/4/1 47/4/1
f 47/4/1 46/4/1 48/4/1
f 49/1/1 50/1/1 53/1/1
f 53/1/1 50/1/1 54/1/1
f 51/4/1 52/4/1 56/4/1
f 56/4/1 52/4/1 57/4/1
f 54/1/1 55/1/1 58/1/1
f 58/1/1 55/1/1 59/1/1
f 59/4/1 60/4/1 61/4/1
f 61/4/1 60/4/1 62/4/1
f 63/4/1 64/4/1 65/4/1
f 65/4/1 64/4/1 66/4/1
f 67/1/1 68/1/1 69/1/1
f 69/1/1 68/1/1 70/1/1
f 70/1/1 71/1/1 74/1/1
f 74/1/1 71/1/1 75/1/1
f 72/4/1 73/4/1 78/4/1
f 78/4/1 73/4/1 79/4/1
f 75/1/1 76/1/1 80/1/1
f 80/1/1 76/1/1 81/1/1
f 77/4/1 78/4/1 85/4/1
f 85/4/1 78/4/1 86/4/1
f 82/4/1 83/4/1 87/4/1
f 87/4/1 83/4/1 88/4/1
f 84/4/1 85/4/1 89/4/1
f 89/4/1 85/4/1 90/4/1
f 91/1/1 92/1/1 93/1/1
f 93/1/1 92/1/1 94/1/1
f 95/1/1 96/1/1 97/1/1
f 97/1/1 96/1/1 98/1/1
f 99/4/1 100/4/1 101/4/1
f 101/4/1 100/4/1 102/4/1
f 102/4/1 100/4/1 103/4/1
f 101/5/1 102/5/1 104/5/1
f 102/3/1 103/3/1 105/3/1
f 104/5/1 102/5/1 105/5/1
f 104/3/1 105/3/1 106/3/1
f 103/4/1 100/4/1 107/4/1
f 106/3/1 105/3/1 107/3/1
f 105/3/1 103/3/1 107/3/1
f 106/4/1 107/4/1 108/4/1
f 107/4/1 100/4/1 109/4/1
f 108/4/1 107/4/1 109/4/1
f 112/4/2 111/4/2 110/4/2
f 113/4/2 111/4/2 112/4/2
f 114/4/2 111/4/2 113/4/2
f 115/5/2 113/5/2 112/5/2
f 116/3/2 114/3/2 113/3/2
f 116/5/2 113/5/2 115/5/2
f 117/3/2 116/3/2 115/3/2
f 118/4/2 111/4/2 114/4/2
f 118/3/2 116/3/2 117/3/2
f 118/3/2 114/3/2 116/3/2
f 119/4/2 118/4/2 117/4/2
f 120/4/2 111/4/2 118/4/2
f 120/4/2 118/4/2 119/4/2
f 123/1/2 122/1/2 121/1/2
f 124/1/2 122/1/2 123/1/2
f 127/1/2 126/1/2 125/1/2
f 128/1/2 126/1/2 127/1/2
f 131/1/2 130/1/2 129/1/2
f 132/1/2 130/1/2 131/1/2
f 136/1/2 133/1/2 132/1/2
f 137/1/2 133/1/2 136/1/2
f 140/4/2 135/4/2 134/4/2
f 141/4/2 135/4/2 140/4/2
f 142/1/2 138/1/2 137/1/2
f 143/1/2 138/1/2 142/1/2
f 147/4/2 140/4/2 139/4/2
f 148/4/2 140/4/2 147/4/2
f 149/4/2 145/4/2 144/4/2
f 150/4/2 145/4/2 149/4/2
f 151/4/2 147/4/2 146/4/2
f 152/4/2 147/4/2 151/4/2
f 155/4/2 154/4/2 153/4/2
f 156/4/2 154/4/2 155/4/2
f 161/1/2 158/1/2 157/1/2
f 162/1/2 158/1/2 161/1/2
f 164/4/2 160/4/2 159/4/2
f 165/4/2 160/4/2 164/4/2
f 166/1/2 163/1/2 162/1/2
f 167/1/2 163/1/2 166/1/2
f 169/4/2 168/4/2 167/4/2
f 170/4/2 168/4/2 169/4/2
f 173/4/2 172/4/2 171/4/2
f 174/4/2 172/4/2 173/4/2
f 179/4/2 176/4/2 175/4/2
f 180/4/2 176/4/2 179/4/2
f 181/4/2 178/4/2 177/4/2
f 182/4/2 178/4/2 181/4/2
f 187/4/2 184/4/2 183/4/2
f 188/4/2 184/4/2 187/4/2
f 189/1/2 186/1/2 185/1/2
f 190/1/2 186/1/2 189/1/2
f 194/4/2 192/4/2 191/4/2
f 195/4/2 192/4/2 194/4/2
f 196/4/2 194/4/2 193/4/2
f 197/4/2 194/4/2 196/4/2
f 201/4/2 199/4/2 198/4/2
f 202/4/2 199/4/2 201/4/2
f 204/4/2 201/4/2 200/4/2
f 204/4/2 203/4/2 202/4/2
f 204/4/2 202/4/2 201/4/2
f 205/4/2 203/4/2 204/4/2
f 206/4/2 203/4/2 205/4/2
f 207/4/2 204/4/2 200/4/2
f 207/5/2 205/5/2 204/5/2
f 208/3/2 206/3/2 205/3/2
f 208/5/2 205/5/2 207/5/2
f 209/4/2 207/4/2 200/4/2
f 209/3/2 208/3/2 207/3/2
f 210/4/2 203/4/2 206/4/2
f 210/3/2 208/3/2 209/3/2
f 210/3/2 206/3/2 208/3/2
f 211/4/2 203/4/2 210/4/2
f 212/4/2 203/4/2 211/4/2
f 213/4/2 209/4/2 200/4/2
f 213/4/2 210/4/2 209/4/2
f 213/4/2 211/4/2 210/4/2
f 214/4/2 211/4/2 213/4/2
f 215/4/2 211/4/2 214/4/2
f 216/4/2 211/4/2 215/4/2
f 217/4/2 215/4/2 214/4/2
f 218/4/2 215/4/2 217/4/2
f 219/1/3 220/1/3 221/1/3
f 221/1/3 220/1/3 222/1/3
f 223/1/3 224/1/3 225/1/3
f 225/1/3 224/1/3 226/1/3
f 226/1/3 227/1/3 229/1/3
f 229/1/3 227/1/3 230/1/3
f 228/1/3 229/1/3 231/1/3
f 231/1/3 229/1/3 232/1/3
f 233/1/3 234/1/3 235/1/3
f 235/1/3 234/1/3 236/1/3
f 236/1/3 237/1/3 238/1/3
f 238/1/3 237/1/3 239/1/3
f 239/1/3 240/1/3 242/1/3
f 242/1/3 240/1/3 243/1/3
f 241/1/3 242/1/3 245/1/3
f 245/1/3 242/1/3 246/1/3
f 244/1/3 245/1/3 247/1/3
f 247/1/3 245/1/3 248/1/3
f 249/4/3 250/4/3 252/4/3
f 252/4/3 250/4/3 253/4/3
f 253/4/3 250/4/3 254/4/3
f 254/4/3 250/4/3 255/4/3
f 251/4/3 252/4/3 256/4/3
f 252/2/3 253/2/3 257/2/3
f 256/4/3 252/4/3 257/4/3
f 253/5/3 254/5/3 258/5/3
f 255/4/3 250/4/3 259/4/3
f 259/4/3 250/4/3 260/4/3
f 253/5/3 258/5/3 262/5/3
f 257/2/3 253/2/3 262/2/3
f 256/2/3 257/2/3 262/2/3
f 258/2/3 259/2/3 263/2/3
f 262/5/3 258/5/3 263/5/3
f 260/4/3 261/4/3 264/4/3
f 264/4/3 261/4/3 265/4/3
f 256/2/3 262/2/3 266/2/3
f 262/2/3 263/2/3 266/2/3
f 263/2/3 259/2/3 267/2/3
f 266/2/3 263/2/3 267/2/3
f 256/2/3 266/2/3 270/2/3
f 270/2/3 266/2/3 271/2/3
f 266/5/3 267/5/3 272/5/3
f 267/2/3 259/2/3 272/2/3
f 272/2/3 259/2/3 273/2/3
f 268/4/3 269/4/3 274/4/3
f 274/4/3 269/4/3 275/4/3
f 270/4/3 271/4/3 276/4/3
f 271/2/3 266/2/3 277/2/3
f 276/4/3 271/4/3 277/4/3
f 266/5/3 272/5/3 278/5/3
f 277/2/3 266/2/3 278/2/3
f 278/5/3 272/5/3 279/5/3
f 273/4/3 274/4/3 280/4/3
f 278/4/3 279/4/3 281/4/3
f 279/4/3 280/4/3 281/4/3
f 277/4/3 278/4/3 281/4/3
f 280/4/3 274/4/3 282/4/3
f 281/4/3 280/4/3 282/4/3
f 283/4/3 284/4/3 287/4/3
f 287/4/3 284/4/3 288/4/3
f 285/4/3 286/4/3 289/4/3
f 289/4/3 286/4/3 290/4/3
f 291/4/3 292/4/3 293/4/3
f 293/4/3 292/4/3 294/4/3
f 297/4/3 298/4/3 299/4/3
f 299/4/3 298/4/3 300/4/3
f 295/4/3 296/4/3 301/4/3
f 301/4/3 296/4/3 302/4/3
f 303/4/3 304/4/3 305/4/3
f 305/4/3 304/4/3 306/4/3
f 307/4/3 308/4/3 309/4/3
f 309/4/3 308/4/3 310/4/3
f 311/4/3 312/4/3 313/4/3
f 313/4/3 312/4/3 314/4/3
f 317/1/4 316/1/4 315/1/4
f 318/1/4 316/1/4 317/1/4
f 321/1/4 320/1/4 319/1/4
f 322/1/4 320/1/4 321/1/4
f 325/1/4 324/1/4 323/1/4
f 326/1/4 324/1/4 325/1/4
f 332/2/4 328/2/4 327/2/4
f 332/5/4 329/5/4 328/5/4
f 333/2/4 330/2/4 329/2/4
f 333/5/4 329/5/4 332/5/4
f 334/2/4 332/2/4 327/2/4
f 334/2/4 333/2/4 332/2/4
f 335/2/4 330/2/4 333/2/4
f 335/2/4 333/2/4 334/2/4
f 336/2/4 334/2/4 327/2/4
f 337/5/4 335/5/4 334/5/4
f 337/2/4 334/2/4 336/2/4
f 338/2/4 330/2/4 335/2/4
f 338/5/4 335/5/4 337/5/4
f 339/4/4 331/4/4 330/4/4
f 339/2/4 330/2/4 338/2/4
f 340/4/4 331/4/4 339/4/4
f 343/4/4 342/4/4 341/4/4
f 344/4/4 342/4/4 343/4/4
f 347/4/4 346/4/4 345/4/4
f 348/4/4 346/4/4 347/4/4
f 351/4/4 350/4/4 349/4/4
f 352/4/4 350/4/4 351/4/4
f 355/4/4 354/4/4 353/4/4
f 356/4/4 354/4/4 355/4/4
f 361/4/4 358/4/4 357/4/4
f 362/4/4 358/4/4 361/4/4
f 363/4/4 360/4/4 359/4/4
f 364/4/4 360/4/4 363/4/4
f 366/4/4 365/4/4 364/4/4
f 367/4/4 365/4/4 366/4/4
f 370/4/4 368/4/4 367/4/4
f 371/4/4 368/4/4 370/4/4
f 375/4/4 370/4/4 369/4/4
f 376/4/4 370/4/4 375/4/4
f 377/4/4 373/4/4 372/4/4
f 378/4/4 373/4/4 377/4/4
f 379/4/4 375/4/4 374/4/4
f 380/4/4 375/4/4 379/4/4
f 384/4/4 382/4/4 381/4/4
f 385/4/4 382/4/4 384/4/4
f 386/4/4 382/4/4 385/4/4
f 387/4/4 382/4/4 386/4/4
f 389/4/4 384/4/4 383/4/4
f 389/4/4 385/4/4 384/4/4
f 390/4/4 385/4/4 389/4/4
f 391/4/4 388/4/4 387/4/4
f 391/4/4 387/4/4 386/4/4
f 392/4/4 388/4/4 391/4/4
f 393/4/4 388/4/4 392/4/4
f 394/4/4 388/4/4 393/4/4
f 397/4/4 395/4/4 394/4/4
f 398/4/4 395/4/4 397/4/4
f 399/4/4 389/4/4 383/4/4
f 402/4/4 397/4/4 396/4/4
f 403/4/4 400/4/4 399/4/4
f 403/4/4 399/4/4 383/4/4
f 404/4/4 400/4/4 403/4/4
f 405/4/4 400/4/4 404/4/4
f 406/4/4 402/4/4 401/4/4
f 407/4/4 397/4/4 402/4/4
f 407/4/4 402/4/4 406/4/4
f 408/4/4 397/4/4 407/4/4
f 409/4/4 405/4/4 404/4/4
f 409/4/4 406/4/4 405/4/4
f 409/4/4 407/4/4 406/4/4
f 410/4/4 407/4/4 409/4/4
f 414/4/4 412/4/4 411/4/4
f 415/4/4 412/4/4 414/4/4
f 417/4/4 414/4/4 413/4/4
f 417/4/4 416/4/4 415/4/4
f 417/4/4 415/4/4 414/4/4
f 419/4/4 417/4/4 413/4/4
f 419/4/4 418/4/4 417/4/4
f 420/4/4 418/4/4 419/4/4
f 421/4/4 419/4/4 413/4/4
f 422/4/4 419/4/4 421/4/4
f 423/4/4 419/4/4 422/4/4
f 424/4/4 419/4/4 423/4/4
f 425/4/4 423/4/4 422/4/4
f 426/4/4 423/4/4 425/4/4
f 427/4/5 428/4/5 432/4/5
f 428/2/5 429/2/5 433/2/5
f 432/4/5 428/4/5 433/4/5
f 429/4/5 430/4/5 434/4/5
f 433/2/5 429/2/5 434/2/5
f 434/4/5 430/4/5 435/4/5
f 432/4/5 433/4/5 437/4/5
f 435/4/5 436/4/5 437/4/5
f 434/4/5 435/4/5 437/4/5
f 433/4/5 434/4/5 437/4/5
f 431/4/5 432/4/5 437/4/5
f 437/4/5 436/4/5 438/4/5
f 438/4/5 436/4/5 439/4/5
f 439/4/5 436/4/5 440/4/5
f 438/4/5 439/4/5 441/4/5
f 441/4/5 439/4/5 442/4/5
f 443/4/5 444/4/5 447/4/5
f 447/4/5 444/4/5 448/4/5
f 445/4/5 446/4/5 449/4/5
f 449/4/5 446/4/5 450/4/5
f 451/4/5 452/4/5 455/4/5
f 455/4/5 452/4/5 456/4/5
f 453/4/5 454/4/5 459/4/5
f 459/4/5 454/4/5 460/4/5
f 457/4/5 458/4/5 461/4/5
f 461/4/5 458/4/5 462/4/5
f 463/4/5 464/4/5 467/4/5
f 467/4/5 464/4/5 468/4/5
f 465/4/5 466/4/5 469/4/5
f 469/4/5 466/4/5 470/4/5
f 471/1/5 472/1/5 474/1/5
f 474/1/5 472/1/5 475/1/5
f 473/1/5 474/1/5 478/1/5
f 478/1/5 474/1/5 479/1/5
f 475/1/5 476/1/5 480/1/5
f 480/1/5 476/1/5 481/1/5
f 477/1/5 478/1/5 483/1/5
f 483/1/5 478/1/5 484/1/5
f 481/1/5 482/1/5 485/1/5
f 485/1/5 482/1/5 486/1/5
f 487/1/5 488/1/5 490/1/5
f 490/1/5 488/1/5 491/1/5
f 489/1/5 490/1/5 493/1/5
f 491/1/5 492/1/5 493/1/5
f 490/1/5 491/1/5 493/1/5
f 493/1/5 492/1/5 494/1/5
f 495/4/5 496/4/5 497/4/5
f 497/4/5 496/4/5 498/4/5
f 501/4/6 500/4/6 499/4/6
f 502/4/6 500/4/6 501/4/6
f 507/4/6 504/4/6 503/4/6
f 508/4/6 504/4/6 507/4/6
f 509/4/6 506/4/6 505/4/6
f 510/4/6 506/4/6 509/4/6
f 514/1/6 512/1/6 511/1/6
f 515/1/6 512/1/6 514/1/6
f 518/1/6 514/1/6 513/1/6
f 519/1/6 514/1/6 518/1/6
f 520/1/6 516/1/6 515/1/6
f 521/1/6 516/1/6 520/1/6
f 523/1/6 518/1/6 517/1/6
f 524/1/6 518/1/6 523/1/6
f 525/1/6 522/1/6 521/1/6
f 526/1/6 522/1/6 525/1/6
f 531/4/6 528/4/6 527/4/6
f 532/4/6 528/4/6 531/4/6
f 537/4/6 530/4/6 529/4/6
f 538/4/6 530/4/6 537/4/6
f 539/4/6 534/4/6 533/4/6
f 540/4/6 534/4/6 539/4/6
f 541/4/6 536/4/6 535/4/6
f 542/4/6 536/4/6 541/4/6
f 546/1/6 544/1/6 543/1/6
f 547/1/6 544/1/6 546/1/6
f 550/1/6 546/1/6 545/1/6
f 551/1/6 546/1/6 550/1/6
f 552/1/6 548/1/6 547/1/6
f 553/1/6 548/1/6 552/1/6
f 555/4/6 550/4/6 549/4/6
f 556/4/6 550/4/6 555/4/6
f 557/4/6 554/4/6 553/4/6
f 558/4/6 554/4/6 557/4/6
f 563/4/6 560/4/6 559/4/6
f 564/4/6 560/4/6 563/4/6
f 567/4/6 562/4/6 561/4/6
f 568/4/6 562/4/6 567/4/6
f 569/4/6 565/4/6 564/4/6
f 570/4/6 565/4/6 569/4/6
f 571/4/6 567/4/6 566/4/6
f 572/4/6 567/4/6 571/4/6
f 573/4/6 571/4/6 570/4/6
f 574/4/6 571/4/6 573/4/6
f 578/1/6 576/1/6 575/1/6
f 579/1/6 576/1/6 578/1/6
f 582/4/6 578/4/6 577/4/6
f 582/4/6 580/4/6 579/4/6
f 582/4/6 579/4/6 578/4/6
f 583/4/6 580/4/6 582/4/6
f 584/4/6 580/4/6 583/4/6
f 585/4/6 580/4/6 584/4/6
f 587/4/6 582/4/6 581/4/6
f 587/4/6 583/4/6 582/4/6
f 588/4/6 583/4/6 587/4/6
f 589/4/6 586/4/6 585/4/6
f 589/4/6 585/4/6 584/4/6
f 590/4/6 586/4/6 589/4/6
f 591/4/6 587/4/6 581/4/6
f 592/4/6 587/4/6 591/4/6
f 593/4/6 587/4/6 592/4/6
f 596/4/6 586/4/6 590/4/6
f 597/4/6 586/4/6 596/4/6
f 598/4/6 586/4/6 597/4/6
f 599/4/6 594/4/6 593/4/6
f 599/4/6 593/4/6 592/4/6
f 600/4/6 594/4/6 599/4/6
f 601/4/6 597/4/6 596/4/6
f 601/4/6 596/4/6 595/4/6
f 602/4/6 597/4/6 601/4/6
f 603/4/6 601/4/6 600/4/6
f 604/4/6 601/4/6 603/4/6
f 608/4/6 606/4/6 605/4/6
f 609/4/6 606/4/6 608/4/6
f 611/4/6 608/4/6 607/4/6
f 611/4/6 610/4/6 609/4/6
f 611/4/6 609/4/6 608/4/6
f 612/4/6 610/4/6 611/4/6
f 613/4/6 610/4/6 612/4/6
f 614/4/6 610/4/6 613/4/6
f 615/4/6 613/4/6 612/4/6
f 616/4/6 613/4/6 615/4/6
