# MagicaVoxel @ Ephtracy

# group
o 

# material
mtllib anim_player_snowman_leg.mtl
usemtl palette

# normals
vn -1 0 0
vn 1 0 0
vn 0 0 -1
vn 0 0 1
vn 0 -1 0
vn 0 1 0

# texcoords
vt 0.197266 0.5
vt 0.275391 0.5

# verts
v -0.1 -0.2 -0.2
v -0.1 -0.2 0.2
v -0.1 -0.1 -0.2
v -0.1 -0.1 0
v -0.1 -0.1 0.2
v -0.1 0 0
v -0.1 0 0.2
v -0.1 0.2 0
v -0.1 0.2 0.2
v 0.1 -0.2 -0.2
v 0.1 -0.2 0.2
v 0.1 -0.1 -0.2
v 0.1 -0.1 0
v 0.1 -0.1 0.2
v 0.1 0 0
v 0.1 0 0.2
v 0.1 0.2 0
v 0.1 0.2 0.2
v -0.1 -0.2 -0.2
v -0.1 -0.1 -0.2
v 0.1 -0.2 -0.2
v 0.1 -0.1 -0.2
v -0.1 -0.1 0
v -0.1 0 0
v -0.1 0.2 0
v 0.1 -0.1 0
v 0.1 0 0
v 0.1 0.2 0
v -0.1 -0.2 0.2
v -0.1 -0.1 0.2
v -0.1 0 0.2
v -0.1 0.2 0.2
v 0.1 -0.2 0.2
v 0.1 -0.1 0.2
v 0.1 0 0.2
v 0.1 0.2 0.2
v -0.1 -0.2 -0.2
v 0.1 -0.2 -0.2
v -0.1 -0.2 0.2
v 0.1 -0.2 0.2
v -0.1 -0.1 -0.2
v 0.1 -0.1 -0.2
v -0.1 -0.1 0
v 0.1 -0.1 0
v -0.1 0.2 0
v 0.1 0.2 0
v -0.1 0.2 0.2
v 0.1 0.2 0.2

# faces
f 1/1/1 2/1/1 3/1/1
f 3/1/1 2/1/1 4/1/1
f 4/1/1 2/1/1 5/1/1
f 4/2/1 5/2/1 6/2/1
f 6/2/1 5/2/1 7/2/1
f 6/1/1 7/1/1 8/1/1
f 8/1/1 7/1/1 9/1/1
f 12/1/2 11/1/2 10/1/2
f 13/1/2 11/1/2 12/1/2
f 14/1/2 11/1/2 13/1/2
f 15/2/2 14/2/2 13/2/2
f 16/2/2 14/2/2 15/2/2
f 17/1/2 16/1/2 15/1/2
f 18/1/2 16/1/2 17/1/2
f 19/1/3 20/1/3 21/1/3
f 21/1/3 20/1/3 22/1/3
f 23/2/3 24/2/3 26/2/3
f 24/1/3 25/1/3 27/1/3
f 26/2/3 24/2/3 27/2/3
f 27/1/3 25/1/3 28/1/3
f 33/1/4 30/1/4 29/1/4
f 34/2/4 31/2/4 30/2/4
f 34/1/4 30/1/4 33/1/4
f 35/1/4 32/1/4 31/1/4
f 35/2/4 31/2/4 34/2/4
f 36/1/4 32/1/4 35/1/4
f 37/1/5 38/1/5 39/1/5
f 39/1/5 38/1/5 40/1/5
f 43/1/6 42/1/6 41/1/6
f 44/1/6 42/1/6 43/1/6
f 47/1/6 46/1/6 45/1/6
f 48/1/6 46/1/6 47/1/6
